<?xml version="1.0" encoding="UTF-8" standalone="no"?>
<!-- Generator: Adobe Illustrator 21.0.1, SVG Export Plug-In . SVG Version: 6.00 Build 0)  -->

<svg
   xmlns:dc="http://purl.org/dc/elements/1.1/"
   xmlns:cc="http://creativecommons.org/ns#"
   xmlns:rdf="http://www.w3.org/1999/02/22-rdf-syntax-ns#"
   xmlns:svg="http://www.w3.org/2000/svg"
   xmlns="http://www.w3.org/2000/svg"
   xmlns:sodipodi="http://sodipodi.sourceforge.net/DTD/sodipodi-0.dtd"
   xmlns:inkscape="http://www.inkscape.org/namespaces/inkscape"
   version="1.1"
   id="Слой_1"
   x="0px"
   y="0px"
   viewBox="0 0 266 300"
   xml:space="preserve"
   sodipodi:docname="no time.svg"
   width="266"
   height="300"
   inkscape:version="0.92.1 r15371"><metadata
     id="metadata15"><rdf:RDF><cc:Work
         rdf:about=""><dc:format>image/svg+xml</dc:format><dc:type
           rdf:resource="http://purl.org/dc/dcmitype/StillImage" /><dc:title></dc:title></cc:Work></rdf:RDF></metadata><defs
     id="defs13" /><sodipodi:namedview
     pagecolor="#ffffff"
     bordercolor="#666666"
     borderopacity="1"
     objecttolerance="10"
     gridtolerance="10"
     guidetolerance="10"
     inkscape:pageopacity="0"
     inkscape:pageshadow="2"
     inkscape:window-width="1280"
     inkscape:window-height="971"
     id="namedview11"
     showgrid="false"
     inkscape:zoom="0.59"
     inkscape:cx="170.33898"
     inkscape:cy="200"
     inkscape:window-x="-8"
     inkscape:window-y="-8"
     inkscape:window-maximized="1"
     inkscape:current-layer="Слой_1" /><style
     type="text/css"
     id="style2">
	.st0{fill:#FFFFFF;}
</style><g
     id="g8"
     transform="matrix(1,0,0,0.999001,-67,-49.85015)"><path
       class="st0"
       d="m 206.8,220.5 c 0,-3.8 -3.1,-6.8 -6.8,-6.8 -3.8,0 -6.8,3.1 -6.8,6.8 0,9.9 -5.9,19.6 -16.6,27.5 -22.8,16.9 -39.9,35.2 -50.7,54.4 -1.2,2.1 -1.2,4.7 0,6.8 1.2,2.1 3.5,3.4 5.9,3.4 h 136.4 c 2.4,0 4.7,-1.3 5.9,-3.4 1.3,-2.1 1.3,-4.7 0.1,-6.8 -10.8,-19.2 -27.9,-37.5 -50.7,-54.4 -10.8,-7.9 -16.7,-17.7 -16.7,-27.5 z m 0,0"
       id="path4"
       inkscape:connector-curvature="0"
       style="fill:#ffffff" /><path
       class="st0"
       d="m 319.3,322.8 h -4.1 C 310.5,269.7 279.4,229 255.3,200 279.5,171.1 310.5,130.3 315.2,77.2 h 4.1 c 7.5,0 13.7,-6.1 13.7,-13.7 0,-7.5 -6.1,-13.6 -13.7,-13.6 H 80.6 C 73.1,50 67,56.1 67,63.6 c 0,7.5 6.1,13.7 13.6,13.7 h 4.1 c 4.7,53.1 35.8,93.8 59.9,122.8 -24.2,28.9 -55.2,69.7 -59.9,122.8 h -4.1 c -7.5,0 -13.6,6.1 -13.6,13.6 0,7.5 6.1,13.7 13.6,13.7 h 238.7 c 7.5,0 13.7,-6.1 13.7,-13.7 0,-7.7 -6.1,-13.7 -13.7,-13.7 z m -207.2,0 c 5.1,-47.9 36.3,-84.9 59.6,-112.5 l 1.3,-1.5 c 4.3,-5.1 4.3,-12.5 0,-17.6 l -1.3,-1.5 C 148.4,162.1 117.2,125.2 112.1,77.2 H 288 c -5.1,47.9 -36.3,84.9 -59.6,112.5 l -1.2,1.5 c -4.3,5.1 -4.3,12.5 0,17.6 l 1.2,1.5 c 23.3,27.6 54.5,64.5 59.6,112.5 z m 0,0"
       id="path6"
       inkscape:connector-curvature="0"
       style="fill:#ffffff" /></g></svg>