<?xml version="1.0" encoding="UTF-8" standalone="no"?>
<!-- Generator: Adobe Illustrator 21.0.1, SVG Export Plug-In . SVG Version: 6.00 Build 0)  -->

<svg
   xmlns:dc="http://purl.org/dc/elements/1.1/"
   xmlns:cc="http://creativecommons.org/ns#"
   xmlns:rdf="http://www.w3.org/1999/02/22-rdf-syntax-ns#"
   xmlns:svg="http://www.w3.org/2000/svg"
   xmlns="http://www.w3.org/2000/svg"
   xmlns:sodipodi="http://sodipodi.sourceforge.net/DTD/sodipodi-0.dtd"
   xmlns:inkscape="http://www.inkscape.org/namespaces/inkscape"
   version="1.1"
   id="Слой_1"
   x="0px"
   y="0px"
   viewBox="0 0 114 40"
   xml:space="preserve"
   sodipodi:docname="akmp-logo.svg"
   width="114"
   height="40"
   inkscape:version="0.92.1 r15371"><metadata
     id="metadata15"><rdf:RDF><cc:Work
         rdf:about=""><dc:format>image/svg+xml</dc:format><dc:type
           rdf:resource="http://purl.org/dc/dcmitype/StillImage" /><dc:title></dc:title></cc:Work></rdf:RDF></metadata><defs
     id="defs13" /><sodipodi:namedview
     pagecolor="#ffffff"
     bordercolor="#666666"
     borderopacity="1"
     objecttolerance="10"
     gridtolerance="10"
     guidetolerance="10"
     inkscape:pageopacity="0"
     inkscape:pageshadow="2"
     inkscape:window-width="1280"
     inkscape:window-height="971"
     id="namedview11"
     showgrid="false"
     inkscape:zoom="1.5733333"
     inkscape:cx="157.7995"
     inkscape:cy="-20.830766"
     inkscape:window-x="-8"
     inkscape:window-y="-8"
     inkscape:window-maximized="1"
     inkscape:current-layer="Слой_1" /><style
     type="text/css"
     id="style2">
	.st0{fill:#FFFFFF;}
</style><g
     id="g8"
     transform="matrix(0.2194103,0,0,0.22396417,-7.372217,-46.057868)"><path
       class="st0"
       d="M 495.2,297.3 H 450 v 33.4 h 42.7 c 20.2,0 36.2,-5.9 48,-17.7 9.3,-11.7 13.4,-27.9 12.3,-48.9 -5.8,-28 -25,-43.6 -57.6,-47.1 H 450 415.8 415.2 v 1.3 L 367.4,324.8 319.2,217 H 307.3 277.7 264 L 202.2,293.1 202,217 h -39.4 v 72.9 L 134.8,217 h -33.2 l -68,176.1 H 72 L 84.3,354.8 H 147 l 15.6,38.1 v 0.2 h 0.1 39 0.1 0.4 v -52.6 l 27.4,-31.8 48.1,84.4 h 41.6 0.4 l -0.4,-0.8 -41.6,-74.8 -22,-39.6 22,-26 v 0 65.5 l 41.6,74.8 v -96.6 l 47.5,100 48.3,-102 V 393 h 0.1 34.8 0.1 v -62.5 -33.4 -45.3 h 44.2 c 5.9,0 11.1,1.9 15.6,5.8 4.5,3.8 6.8,9 6.8,15.6 0,6.6 -1.9,12.2 -5.8,16.7 -3.9,4.6 -9,7 -15.7,7.4 z M 96,321.2 l 19.8,-58.9 20.7,59.3 z"
       id="path4"
       inkscape:connector-curvature="0"
       style="fill:#ffffff" /><polygon
       class="st0"
       points="541.7,391.9 541.7,334.2 484.1,391.9 "
       id="polygon6"
       style="fill:#ffffff" /></g></svg>