<?xml version="1.0" encoding="UTF-8" standalone="no"?>
<!-- Generator: Adobe Illustrator 21.0.1, SVG Export Plug-In . SVG Version: 6.00 Build 0)  -->

<svg
   xmlns:dc="http://purl.org/dc/elements/1.1/"
   xmlns:cc="http://creativecommons.org/ns#"
   xmlns:rdf="http://www.w3.org/1999/02/22-rdf-syntax-ns#"
   xmlns:svg="http://www.w3.org/2000/svg"
   xmlns="http://www.w3.org/2000/svg"
   xmlns:sodipodi="http://sodipodi.sourceforge.net/DTD/sodipodi-0.dtd"
   xmlns:inkscape="http://www.inkscape.org/namespaces/inkscape"
   version="1.1"
   id="Слой_1"
   x="0px"
   y="0px"
   viewBox="0 0 160 39"
   xml:space="preserve"
   sodipodi:docname="bee-logo.svg"
   width="160"
   height="39"
   inkscape:version="0.92.1 r15371"><metadata
     id="metadata37"><rdf:RDF><cc:Work
         rdf:about=""><dc:format>image/svg+xml</dc:format><dc:type
           rdf:resource="http://purl.org/dc/dcmitype/StillImage" /><dc:title></dc:title></cc:Work></rdf:RDF></metadata><defs
     id="defs35" /><sodipodi:namedview
     pagecolor="#ffffff"
     bordercolor="#666666"
     borderopacity="1"
     objecttolerance="10"
     gridtolerance="10"
     guidetolerance="10"
     inkscape:pageopacity="0"
     inkscape:pageshadow="2"
     inkscape:window-width="1280"
     inkscape:window-height="971"
     id="namedview33"
     showgrid="false"
     inkscape:zoom="0.39333333"
     inkscape:cx="211.01694"
     inkscape:cy="300"
     inkscape:window-x="-8"
     inkscape:window-y="-8"
     inkscape:window-maximized="1"
     inkscape:current-layer="Слой_1" /><style
     type="text/css"
     id="style2">
	.st0{fill:#FFFFFF;}
</style><g
     id="g30"
     transform="matrix(0.35005371,0,0,0.34910781,-21.948367,-82.051354)"><path
       class="st0"
       d="m 519.5,265.5 c -1.4,-8.9 -6.5,-17.1 -13.3,-22.9 -6.5,-5.6 -15.1,-7.3 -23.4,-7.4 -4.7,-0.1 -9.5,-0.6 -14.1,0.8 -4.1,1.3 -8.1,4 -11.4,6.7 -3.2,2.6 -5.4,6.5 -7,10.2 -0.8,1.9 -1.1,3.9 -1.1,5.9 0,2.1 0.4,4.3 -2.2,5.4 -0.9,0.3 -1.7,0.7 -2.4,1.2 -6.7,4.6 5.9,10.7 -0.1,14.7 -3.6,2.4 -6,3.2 -7.9,7.4 -1.7,3.6 -2.4,7.7 -2.4,11.7 0.1,14.6 17.7,23.8 29.9,15.8 5.9,-3.8 8.6,-11.2 10.2,-17.7 1.7,-7.3 2,-13.5 -4.4,-18.3 -5.1,-4 -10.1,-2.9 -15.9,-1.3 -5.7,1.5 -9.8,6.3 -12.1,11.5 -2.3,5.1 -2.9,11.5 -1.5,16.9 1.4,5.1 9.1,7.5 13.6,6.6 1.2,-0.2 0.7,-2 -0.5,-1.8 -4.6,0.8 -10.7,-2 -11.6,-6.8 -0.9,-4.5 -0.2,-9.1 1.3,-13.4 2.9,-8.2 11.2,-13.1 19.9,-12.8 5.4,0.2 10.3,5.9 10.5,10.9 0.2,4.1 -1.2,8.7 -2.5,12.6 -3,9.2 -9.9,15.8 -20.1,14.3 -9.5,-1.3 -15.3,-9.1 -15,-18.5 0.2,-5 2,-11.6 6.6,-14.2 2.6,-1.4 5.4,-2.4 5.6,-5.8 0.1,-2.3 -2.1,-4.5 -3.3,-6.3 -2.9,-4.6 4,-4.3 5.3,-7.4 0.8,-2 0.7,-3.9 0.7,-6.1 0,-2.9 1.6,-5.9 3.1,-8.3 2.9,-5 8,-8.2 13,-10.7 4.4,-2.2 9.4,-1.7 14.2,-1.6 4.2,0.1 8.2,0.3 12.3,1.3 8.4,2.1 14.6,7.9 19.2,15.1 5,7.8 6.1,16.7 3.3,25.6 -0.5,1.7 -1.2,3.6 -1.3,5.4 -0.1,2.6 0.1,4.9 -1.7,7 -1.9,2.2 -2,4.2 -1.5,7.1 0.9,5 1.4,8.9 0.1,13.9 -1.2,4.3 -3.8,8.1 -7,11.1 -6.6,6.5 -18.7,8.7 -24.7,0.3 -3.8,-5.4 -3.6,-13.9 -1.8,-19.9 2.6,-8.1 10.5,-12.6 18.7,-12.3 1.2,0.1 1.2,-1.9 0,-1.9 -16.4,-0.5 -24.5,15.3 -20.8,29.9 1.2,4.5 4,7.8 7.7,9.7 -0.3,0.6 -0.4,1.3 -0.6,2 -0.3,0.8 -0.5,1.9 -0.3,2.8 v 0.1 c -1.5,3.3 -3.6,6.2 -6.6,8.4 -4.7,3.4 -10.5,2.7 -15.7,0.7 -6.1,-2.3 -11.8,-5 -18.3,-6.1 -2.5,-0.4 -5.3,-0.9 -7.9,-0.8 v -6.5 h 0.1 v -10.5 h -0.1 v -1.5 c 0,-2.7 -0.3,-5.2 -1,-7.5 -0.1,-0.5 -0.3,-1 -0.5,-1.5 v 0 c -0.2,-0.5 -0.4,-1 -0.7,-1.5 -0.1,-0.2 -0.2,-0.5 -0.4,-0.7 0,-0.1 -0.1,-0.2 -0.1,-0.2 -0.4,-0.7 -0.9,-1.4 -1.4,-2 -1.4,-1.6 -3.2,-2.9 -5.4,-3.8 -2.2,-0.9 -4.9,-1.3 -8,-1.3 -2.7,0 -5.3,0.3 -7.7,1 -2.4,0.6 -4.5,1.6 -6.3,2.7 -1.7,-1.3 -3.6,-2.3 -5.8,-2.9 -2.2,-0.6 -4.8,-0.9 -7.9,-0.9 -0.6,0 -1.3,0 -2.2,0.1 -0.9,0 -1.7,0.1 -2.6,0.1 -0.8,0.1 -1.7,0.1 -2.4,0.3 -0.8,0.1 -1.3,0.2 -1.7,0.3 -1.1,0.3 -1.9,0.5 -2.6,0.9 -0.6,0.4 -1.2,0.8 -1.5,1.3 -0.3,0.5 -0.6,1.2 -0.7,1.9 -0.1,0.7 -0.2,1.5 -0.2,2.4 v 12.8 10.5 8.8 c 0,0.6 0.1,1 0.3,1.1 0.2,0.2 0.6,0.3 1.1,0.3 h 5.9 c 0.6,0 1,-0.1 1.2,-0.3 0.2,-0.1 0.3,-0.5 0.3,-1.2 v -8.8 0 -10.5 0 -10.5 h 0.1 v -1.3 c 0.4,-0.1 0.8,-0.1 1.3,-0.2 0.5,-0.1 1.1,-0.1 1.6,-0.1 0.6,0 1.1,-0.1 1.6,-0.1 0.5,0 0.9,-0.1 1.2,-0.1 2.1,0 3.8,0.3 5.2,0.8 0.6,0.3 1.2,0.6 1.7,1 h 0.2 c 0.5,0.4 0.9,0.8 1.2,1.2 0.8,1 1.3,2.2 1.5,3.6 0.3,1.5 0.4,3 0.4,4.8 v 0.8 h -0.1 v 10.5 h 0.1 v 8.8 c 0,0.6 0.1,1 0.3,1.1 0.2,0.2 0.6,0.3 1.1,0.3 h 5.9 c 0.5,0 0.9,-0.1 1.2,-0.3 0.2,-0.2 0.3,-0.5 0.3,-1.1 v -20.1 c 0,-1.9 -0.1,-3.7 -0.3,-5.3 -0.2,-1.6 -0.6,-3.1 -1.2,-4.5 h 0.2 c 1,-0.5 2.2,-1 3.8,-1.2 1.6,-0.3 3.1,-0.5 4.4,-0.5 2.8,0 4.9,0.6 6.5,1.7 h 0.2 c 0.4,0.3 0.7,0.6 1,1 1.4,2 2.2,5 2.2,9.1 v 19.7 c 0,0.6 0.1,1 0.3,1.1 0.2,0.2 0.6,0.3 1.1,0.3 h 5.8 c 0.5,0 0.9,-0.1 1.2,-0.3 0.2,-0.2 0.3,-0.5 0.3,-1.1 V 338 c 4.8,-0.5 10.8,1.3 14.7,2.6 6.2,2 11.9,5.7 18.5,6.1 7.9,0.6 13.4,-4.9 16.7,-11.4 0.3,0 0.5,-0.1 0.8,-0.3 0.6,-0.3 1,-1.3 1.3,-1.9 0.4,-0.9 0.8,-1.9 1.3,-2.6 1.3,0.3 2.6,0.4 4,0.5 8.3,0.3 15.4,-6.1 19.5,-12.7 2.2,-3.5 3.1,-7.7 3.5,-11.8 0.2,-2.2 -0.1,-4.3 -0.6,-6.4 -0.4,-1.6 -0.7,-3 -0.8,-4.7 -0.2,-1.7 1.3,-2.9 2.3,-4.2 0.8,-1 1.2,-2.2 1.2,-3.5 0,-3 0.4,-5.7 1.3,-8.6 1.5,-4.3 2.2,-8.7 1.5,-13.6 z"
       id="path4"
       inkscape:connector-curvature="0"
       style="fill:#ffffff" /><path
       class="st0"
       d="m 459.9,257.9 c 0.4,-2.2 1.3,-4.2 2.5,-6.1 5,-8.4 15.4,-9.6 24.3,-8.4 9.2,1.3 16.4,6.1 20.5,14.5 1.9,3.9 2.8,8.3 3.5,12.6 0.8,5.3 1.5,10.8 -2.6,15 -2.4,2.4 -3.7,3.2 -4.2,6.7 -0.4,3.2 -2.3,2.9 -5.2,2.7 -2.2,-0.1 -4.6,-0.7 -6.8,-0.3 -8,1.6 -11.9,10.9 -12.1,18.3 -0.1,3.2 0.3,7.5 2,10.2 1.2,2 4,3 6.1,3.6 4.1,1.2 10.7,1.5 12.5,-3.3 0.4,-1.2 -1.4,-1.6 -1.8,-0.5 -1.3,3.5 -6.6,2.7 -9.5,2.2 -4.7,-1 -6.3,-3.3 -7.1,-7.8 -1.1,-5.5 0.1,-10.7 3,-15.5 2,-3.1 4.6,-5.3 8.4,-5.6 2.9,-0.3 5.9,0.6 8.8,0.3 2.2,-0.2 3.1,-1.4 3.4,-3.5 0.3,-2.1 0.4,-3.6 2,-5 1.7,-1.5 3.1,-2.8 4.2,-4.7 1.7,-3.1 1.2,-6.8 0.9,-10.2 -0.4,-4.2 -1.2,-8.3 -2.5,-12.3 -2.4,-7.3 -7.2,-13.6 -14.2,-16.9 -6.5,-2.9 -14.2,-3.6 -21.2,-2.6 -7,1 -13.1,5.4 -15.8,12.1 -1.5,3.6 -1.2,7.7 -2.7,11.2 -1,2.2 -2.7,4.7 -1.9,7.3 0.6,1.6 2.5,2.1 4,2.4 1.2,0.3 1.7,-1.6 0.5,-1.8 -5.3,-1.1 -1.1,-6.2 0,-9.2 0.8,-1.6 0.7,-3.7 1,-5.4 z"
       id="path6"
       inkscape:connector-curvature="0"
       style="fill:#ffffff" /><path
       class="st0"
       d="m 459.5,293.2 c 0.8,-1.3 2.6,-4.2 3.6,-1.7 0.6,1.3 2.4,0.2 1.8,-1.1 -1.4,-3.1 -4.1,-2.2 -5.9,-0.1 -2.2,2.7 -4.1,6.6 -4.5,10.2 -0.3,2.9 1.7,5.8 4.5,3.7 2.6,-1.9 4.9,-6.1 4.8,-9.4 0,-1.3 -2.1,-1.3 -2,0 0,2.3 -1.4,4.7 -2.7,6.5 -0.3,0.3 -1.5,1.9 -2,1.7 -0.7,-0.3 -0.4,-2.1 -0.3,-2.7 0.3,-2.6 1.4,-5 2.7,-7.1 z"
       id="path8"
       inkscape:connector-curvature="0"
       style="fill:#ffffff" /><path
       class="st0"
       d="m 101.2,316.2 c -0.6,-1.2 -1.5,-2.2 -2.6,-3.1 -1.1,-1 -2.3,-1.7 -3.7,-2.2 v 0 -0.5 c 1.7,-1 3.1,-2.4 4.3,-4.2 1.2,-1.8 1.7,-3.8 1.7,-6.1 0,-2.3 -0.4,-4.3 -1.3,-5.9 -0.8,-1.7 -2,-3 -3.4,-4.1 -1.4,-1.1 -3.1,-1.9 -5.2,-2.4 -2,-0.5 -4.2,-0.8 -6.5,-0.8 L 66.9,287 c -1.6,0 -2.7,0.4 -3.3,1.1 -0.6,0.7 -0.9,1.8 -0.9,3.3 v 44.4 c 0,1.5 0.3,2.6 0.9,3.3 0.6,0.7 1.7,1 3.3,1 h 18.5 c 2.4,0 4.7,-0.4 6.9,-1.2 2.2,-0.8 4,-1.9 5.6,-3.3 1.6,-1.4 2.8,-3.1 3.8,-5 1,-2 1.4,-4.2 1.4,-6.5 0,-1.4 -0.2,-2.7 -0.5,-4 -0.2,-1.5 -0.7,-2.7 -1.4,-3.9 z m -29.1,-21 h 12.7 c 2,0 3.6,0.5 4.8,1.6 1.2,1 1.8,2.5 1.8,4.3 0,1.3 -0.3,2.4 -0.7,3.3 -0.4,0.9 -1,1.5 -1.7,2 -0.7,0.4 -1.5,0.8 -2.3,1 -0.8,0.2 -1.6,0.3 -2.3,0.3 H 72.1 Z m 21.2,31 c -0.3,1 -0.8,1.9 -1.5,2.7 -0.7,0.8 -1.7,1.5 -2.8,2 -1.2,0.5 -2.7,0.8 -4.5,0.8 H 72.1 v -16.5 h 12.5 c 3,0 5.2,0.8 6.8,2.3 1.5,1.5 2.3,3.5 2.3,5.9 0,0.8 -0.1,1.7 -0.4,2.8 z"
       id="path10"
       inkscape:connector-curvature="0"
       style="fill:#ffffff" /><path
       class="st0"
       d="m 128.9,299.3 c -2.7,0 -5,0.5 -7.2,1.5 -2.2,1 -4.1,2.3 -5.7,4.1 -1.6,1.8 -2.9,4 -3.8,6.6 -0.9,2.6 -1.3,5.6 -1.3,8.9 0,7.1 1.7,12.3 4.9,15.6 3.3,3.3 7.9,4.9 14,4.9 2.1,0 4.2,-0.3 6.5,-0.7 2.2,-0.4 4.3,-1.3 6.3,-2.4 0.7,-0.3 0.9,-0.9 0.5,-1.7 l -2,-4.3 c -0.3,-0.6 -0.8,-0.8 -1.7,-0.4 -1.2,0.5 -2.6,1 -4.1,1.4 -1.6,0.4 -3.2,0.6 -4.8,0.6 -1.5,0 -2.8,-0.1 -4.1,-0.5 -1.3,-0.4 -2.4,-1 -3.3,-1.8 -1,-0.8 -1.7,-1.9 -2.3,-3.3 -0.5,-1.3 -0.8,-3 -0.9,-5 H 140 c 0.8,0 1.7,-0.1 2.4,-0.3 0.7,-0.3 1.3,-0.6 1.9,-1.1 0.6,-0.5 1,-1.2 1.3,-2 0.3,-0.9 0.4,-1.9 0.4,-3.3 0,-5.2 -1.4,-9.3 -4.2,-12.3 -2.8,-3 -7.1,-4.5 -12.9,-4.5 z m -8.8,17.1 c 0.1,-1.3 0.3,-2.5 0.8,-3.6 0.4,-1.2 1,-2.2 1.8,-3.1 0.8,-0.9 1.7,-1.7 2.7,-2.2 1.1,-0.5 2.3,-0.8 3.6,-0.8 1.7,0 3.1,0.3 4.2,0.8 1.1,0.5 1.9,1.2 2.6,2.1 0.6,0.9 1.1,1.9 1.3,3.1 0.3,1.2 0.4,2.4 0.4,3.8 h -17.4 z"
       id="path12"
       inkscape:connector-curvature="0"
       style="fill:#ffffff" /><path
       class="st0"
       d="m 170.6,299.3 c -2.6,0 -5,0.5 -7.2,1.5 -2.2,1 -4.1,2.3 -5.7,4.1 -1.6,1.8 -2.9,4 -3.8,6.6 -0.9,2.6 -1.3,5.6 -1.3,8.9 0,7.1 1.7,12.3 4.9,15.6 3.3,3.3 7.9,4.9 14,4.9 2.1,0 4.2,-0.3 6.5,-0.7 2.2,-0.4 4.3,-1.3 6.3,-2.4 0.7,-0.3 0.9,-0.9 0.5,-1.7 l -2,-4.3 c -0.3,-0.6 -0.8,-0.8 -1.7,-0.4 -1.2,0.5 -2.6,1 -4.1,1.4 -1.6,0.4 -3.2,0.6 -4.8,0.6 -1.5,0 -2.8,-0.1 -4.1,-0.5 -1.3,-0.4 -2.4,-1 -3.3,-1.8 -1,-0.8 -1.7,-1.9 -2.3,-3.3 -0.5,-1.3 -0.8,-3 -0.9,-5 h 20.1 c 0.8,0 1.7,-0.1 2.4,-0.3 0.7,-0.3 1.3,-0.6 1.9,-1.1 0.6,-0.5 1,-1.2 1.3,-2 0.3,-0.9 0.4,-1.9 0.4,-3.3 0,-5.2 -1.4,-9.3 -4.2,-12.3 -2.8,-3 -7.1,-4.5 -12.9,-4.5 z m -8.8,17.1 c 0.1,-1.3 0.3,-2.5 0.8,-3.6 0.4,-1.2 1,-2.2 1.8,-3.1 0.8,-0.9 1.7,-1.7 2.7,-2.2 1.1,-0.5 2.3,-0.8 3.6,-0.8 1.7,0 3.1,0.3 4.2,0.8 1.1,0.5 1.9,1.2 2.6,2.1 0.6,0.9 1.1,1.9 1.3,3.1 0.3,1.2 0.4,2.4 0.4,3.8 h -17.4 z"
       id="path14"
       inkscape:connector-curvature="0"
       style="fill:#ffffff" /><path
       class="st0"
       d="m 211.8,333.8 c 0,-0.4 -0.1,-0.6 -0.3,-0.8 -0.2,-0.1 -0.5,-0.2 -0.9,-0.1 -0.4,0 -0.8,0.1 -1.3,0.1 -0.5,0.1 -1,0.1 -1.4,0.1 -1,0 -1.7,-0.2 -2,-0.7 -0.3,-0.4 -0.5,-1.3 -0.5,-2.7 v -43.8 c 0,-0.6 -0.1,-1 -0.3,-1.1 -0.2,-0.2 -0.6,-0.3 -1.2,-0.3 H 198 c -0.5,0 -0.8,0.1 -1.1,0.3 -0.2,0.2 -0.3,0.5 -0.3,1.1 v 46 c 0,3.3 0.6,5.6 2,6.9 1.3,1.3 3.4,2 6.2,2 1,0 2.2,-0.1 3.5,-0.2 1.3,-0.1 2.4,-0.4 3.5,-0.8 0.5,-0.3 0.8,-0.4 0.9,-0.6 0.1,-0.2 0.1,-0.5 0,-1 z"
       id="path16"
       inkscape:connector-curvature="0"
       style="fill:#ffffff" /><path
       class="st0"
       d="m 224.7,284.4 c -1.5,0 -2.7,0.5 -3.8,1.6 -1.1,1 -1.6,2.3 -1.6,3.8 0,1.5 0.5,2.7 1.6,3.8 1,1.1 2.3,1.6 3.8,1.6 1.5,0 2.7,-0.5 3.8,-1.6 1.1,-1 1.6,-2.3 1.6,-3.8 0,-1.5 -0.5,-2.7 -1.6,-3.8 -1,-1.1 -2.3,-1.6 -3.8,-1.6 z"
       id="path18"
       inkscape:connector-curvature="0"
       style="fill:#ffffff" /><path
       class="st0"
       d="m 228.6,300.5 c -0.2,-0.2 -0.6,-0.3 -1.2,-0.3 h -5.8 c -0.5,0 -0.8,0.1 -1.1,0.3 -0.2,0.2 -0.3,0.5 -0.3,1.1 v 37.1 c 0,0.6 0.1,1 0.3,1.1 0.2,0.2 0.6,0.3 1.1,0.3 h 5.8 c 0.5,0 0.9,-0.1 1.2,-0.3 0.2,-0.2 0.3,-0.5 0.3,-1.1 v -37.1 c 0.1,-0.6 0,-1 -0.3,-1.1 z"
       id="path20"
       inkscape:connector-curvature="0"
       style="fill:#ffffff" /><path
       class="st0"
       d="m 270,303.9 c -1.5,-1.5 -3.6,-2.7 -6,-3.4 -2.4,-0.7 -5.3,-1.1 -8.6,-1.1 -0.7,0 -1.5,0 -2.4,0.1 -0.9,0 -1.9,0.1 -2.8,0.1 -1,0.1 -1.9,0.1 -2.7,0.3 -0.9,0.1 -1.5,0.2 -2,0.3 -2.1,0.4 -3.5,1 -4.1,2 -0.6,1 -1,2.4 -1,4.2 v 32.4 c 0,0.6 0.1,1 0.3,1.1 0.2,0.2 0.6,0.3 1.1,0.3 h 5.9 c 0.6,0 1,-0.1 1.2,-0.3 0.2,-0.2 0.3,-0.5 0.3,-1.1 v -31.3 c 1.3,-0.3 2.6,-0.4 3.6,-0.4 1,-0.1 1.8,-0.1 2.4,-0.1 2.1,0 3.8,0.2 5.3,0.8 1.3,0.5 2.4,1.2 3.3,2.2 0.8,1 1.4,2.2 1.7,3.6 0.3,1.4 0.5,3.1 0.5,5.1 v 20.1 c 0,0.6 0.1,1 0.3,1.1 0.2,0.2 0.6,0.3 1.1,0.3 h 5.9 c 0.6,0 1,-0.1 1.2,-0.3 0.2,-0.2 0.3,-0.5 0.3,-1.1 v -19.9 c 0,-3.5 -0.4,-6.5 -1.2,-8.9 -0.8,-2.6 -2,-4.6 -3.6,-6.1 z"
       id="path22"
       inkscape:connector-curvature="0"
       style="fill:#ffffff" /><path
       class="st0"
       d="m 301,299.3 c -2.6,0 -5,0.5 -7.2,1.5 -2.2,1 -4.1,2.3 -5.7,4.1 -1.6,1.8 -2.9,4 -3.8,6.6 -0.9,2.6 -1.3,5.6 -1.3,8.9 0,7.1 1.7,12.3 4.9,15.6 3.3,3.3 7.9,4.9 14,4.9 2.1,0 4.2,-0.3 6.5,-0.7 2.2,-0.4 4.3,-1.3 6.3,-2.4 0.7,-0.3 0.9,-0.9 0.5,-1.7 l -2,-4.3 c -0.3,-0.6 -0.8,-0.8 -1.7,-0.4 -1.2,0.5 -2.6,1 -4.1,1.4 -1.6,0.4 -3.2,0.6 -4.8,0.6 -1.5,0 -2.8,-0.1 -4.1,-0.5 -1.3,-0.4 -2.4,-1 -3.3,-1.8 -1,-0.8 -1.7,-1.9 -2.3,-3.3 -0.5,-1.3 -0.8,-3 -0.9,-5 h 20.1 c 0.8,0 1.7,-0.1 2.4,-0.3 0.7,-0.3 1.3,-0.6 1.9,-1.1 0.6,-0.5 1,-1.2 1.3,-2 0.3,-0.9 0.4,-1.9 0.4,-3.3 0,-5.2 -1.4,-9.3 -4.2,-12.3 -2.8,-3 -7.1,-4.5 -12.9,-4.5 z m -8.7,17.1 c 0.1,-1.3 0.3,-2.5 0.8,-3.6 0.4,-1.2 1,-2.2 1.8,-3.1 0.8,-0.9 1.7,-1.7 2.7,-2.2 1.1,-0.5 2.3,-0.8 3.6,-0.8 1.7,0 3.1,0.3 4.2,0.8 1.1,0.5 1.9,1.2 2.6,2.1 0.6,0.9 1.1,1.9 1.3,3.1 0.3,1.2 0.4,2.4 0.4,3.8 h -17.4 z"
       id="path24"
       inkscape:connector-curvature="0"
       style="fill:#ffffff" /><path
       class="st0"
       d="m 332.1,328.2 c -0.8,0 -1.7,0.2 -2.4,0.5 -0.8,0.3 -1.5,0.8 -2,1.3 -0.6,0.6 -1,1.2 -1.3,2 -0.3,0.8 -0.5,1.6 -0.5,2.5 0,0.9 0.2,1.7 0.5,2.5 0.3,0.8 0.8,1.4 1.3,2 0.6,0.6 1.3,1 2,1.3 0.8,0.3 1.6,0.5 2.4,0.5 1.9,0 3.4,-0.6 4.6,-1.8 1.2,-1.2 1.8,-2.7 1.8,-4.5 0,-1.9 -0.6,-3.3 -1.8,-4.6 -1.2,-1.1 -2.8,-1.7 -4.6,-1.7 z"
       id="path26"
       inkscape:connector-curvature="0"
       style="fill:#ffffff" /><path
       class="st0"
       d="m 370.6,285.1 c -1.7,-0.5 -3.4,-0.8 -5,-1 -1.7,-0.1 -2.9,-0.2 -3.6,-0.2 0,0 0,0 0,0 0,0 -0.1,0 -0.1,0 -4.2,0 -7.1,1 -8.9,3.1 -0.4,0.5 -0.9,1.1 -1.2,1.7 h 0.1 c -1,1.8 -1.5,4.1 -1.5,6.6 v 4 h -0.1 v 0.8 l -5.4,1.2 c -0.6,0.1 -0.9,0.3 -1.1,0.5 -0.1,0.3 -0.3,0.6 -0.3,1 v 2.9 c 0,0.4 0.1,0.6 0.2,0.9 0.1,0.3 0.4,0.3 1,0.3 h 0.1 5.3 v 2.1 h 0.1 v 10.5 h -0.1 V 330 h 0.1 v 8.4 c 0,0.6 0.1,1 0.3,1.1 0.2,0.2 0.6,0.3 1.1,0.3 h 5.9 c 0.6,0 1,-0.1 1.2,-0.3 0.2,-0.2 0.3,-0.5 0.3,-1.1 V 307 h 9 0.1 c 0.6,0 0.9,-0.1 1,-0.3 0.1,-0.2 0.2,-0.5 0.2,-0.9 v -4.4 c 0,-0.4 -0.1,-0.8 -0.2,-1 -0.1,-0.2 -0.4,-0.3 -1,-0.3 h -0.1 -9 v -4.5 c 0,-1.2 0.3,-2.1 1,-2.9 0.6,-0.8 1.9,-1.2 3.8,-1.2 0.7,0 1.5,0.1 2.4,0.1 0.9,0.1 1.9,0.3 2.9,0.4 0.8,0.1 1.2,-0.1 1.3,-0.8 l 1.1,-4.9 c 0.1,-0.4 0.1,-0.6 0.1,-0.9 -0.3,0 -0.5,-0.2 -1,-0.3 z"
       id="path28"
       inkscape:connector-curvature="0"
       style="fill:#ffffff" /></g></svg>