<?xml version="1.0" encoding="UTF-8" standalone="no"?>
<!-- Generator: Adobe Illustrator 21.0.1, SVG Export Plug-In . SVG Version: 6.00 Build 0)  -->

<svg
   xmlns:dc="http://purl.org/dc/elements/1.1/"
   xmlns:cc="http://creativecommons.org/ns#"
   xmlns:rdf="http://www.w3.org/1999/02/22-rdf-syntax-ns#"
   xmlns:svg="http://www.w3.org/2000/svg"
   xmlns="http://www.w3.org/2000/svg"
   xmlns:sodipodi="http://sodipodi.sourceforge.net/DTD/sodipodi-0.dtd"
   xmlns:inkscape="http://www.inkscape.org/namespaces/inkscape"
   version="1.1"
   id="Слой_1"
   x="0px"
   y="0px"
   viewBox="0 0 280 238"
   xml:space="preserve"
   sodipodi:docname="fm-logo.svg"
   width="280"
   height="238"
   inkscape:version="0.92.1 r15371"><metadata
     id="metadata17"><rdf:RDF><cc:Work
         rdf:about=""><dc:format>image/svg+xml</dc:format><dc:type
           rdf:resource="http://purl.org/dc/dcmitype/StillImage" /><dc:title></dc:title></cc:Work></rdf:RDF></metadata><defs
     id="defs15" /><sodipodi:namedview
     pagecolor="#ffffff"
     bordercolor="#666666"
     borderopacity="1"
     objecttolerance="10"
     gridtolerance="10"
     guidetolerance="10"
     inkscape:pageopacity="0"
     inkscape:pageshadow="2"
     inkscape:window-width="1366"
     inkscape:window-height="715"
     id="namedview13"
     showgrid="false"
     inkscape:zoom="0.39333333"
     inkscape:cx="255.50847"
     inkscape:cy="300"
     inkscape:window-x="-8"
     inkscape:window-y="-8"
     inkscape:window-maximized="1"
     inkscape:current-layer="Слой_1" /><style
     type="text/css"
     id="style2">
	.st0{fill-rule:evenodd;clip-rule:evenodd;fill:#FFFFFF;}
	.st1{fill:#FFFFFF;}
</style><g
     id="g10"
     transform="matrix(0.99821044,0,0,0.99995331,-159.41324,-180.95245)"><path
       class="st0"
       d="m 217.3,382.6 v -72.3 -20 c 0,-4.5 1.7,-14.3 6.3,-15.8 7,-2.4 16.3,7.3 16.3,15.1 v 20.8 72.3 20.8 c 0,7.8 -9.3,17.5 -16.3,15.1 -4.6,-1.6 -6.3,-11.3 -6.3,-15.8 z M 396,276.6 c 1,2.7 1.8,5.5 2.5,8.4 -9.1,-6.5 -9,-0.7 -9,2.7 v 60 60 c 0,3.6 0,9.6 10.1,1.9 27.1,-20.6 40.7,-41.3 40.6,-61.9 0.1,-15.2 -7.3,-30.3 -21.9,-45.5 -0.7,-11.5 -3.1,-22.5 -6.9,-32.8 -4.3,3.4 -9.5,5.9 -15.4,7.2 z M 191.9,262.5 c -5.2,12 -8.5,25.1 -9.5,38.8 -15.2,15.4 -22.8,30.8 -22.7,46.3 -0.1,20.6 13.5,41.3 40.6,61.9 10.1,7.7 10,1.6 10.1,-1.9 v -60 -60 c 0,-3.3 0,-8.8 -8.2,-3.3 1,-3.8 2.2,-7.5 3.6,-11.1 z m 190.7,120.1 v -72.3 -20 c 0,-4.5 -1.7,-14.3 -6.3,-15.8 -7,-2.4 -16.3,7.3 -16.3,15.1 v 20.8 72.3 20.8 c 0,7.8 9.3,17.5 16.3,15.1 4.6,-1.6 6.3,-11.3 6.3,-15.8 z"
       id="path4"
       inkscape:connector-curvature="0"
       style="clip-rule:evenodd;fill:#ffffff;fill-rule:evenodd" /><path
       class="st1"
       d="m 240.6,244.8 -32.9,-27.1 -24.2,29.4 32.9,27.1 9.8,-11.9 -26.1,-21.4 4.6,-5.6 26.1,21.4 z m 20.5,-39.6 -3.9,-7 c -2.1,-3.8 -7.9,-7.2 -17.1,-2 l -18.6,10.5 20.9,37.1 13.4,-7.5 -7.3,-13 4.8,-2.7 c 8.3,-4.6 11.1,-9.5 7.8,-15.4 z m -14.5,6.3 c 1.3,2.3 0.4,3.4 -0.4,3.8 l -2,1.1 -5.1,-9 1.6,-0.9 c 1,-0.5 2.7,-0.6 3.9,1.6 z m 62.4,-9.6 -0.4,-3.3 c -1.7,-12.5 -11.1,-19 -23,-17.4 -13.4,1.8 -19,11.7 -17.5,22.9 l 0.5,3.4 c 1.8,13.4 12.4,18.6 22.8,17.2 11.8,-1.6 19.4,-9.5 17.6,-22.8 z m -15.6,3.3 c 1.4,9.9 -0.5,11.2 -2.9,11.5 -2.5,0.3 -4.7,-0.3 -6,-10.4 l -0.7,-5.3 c -1.3,-9.7 0.4,-10.9 3.1,-11.3 2.2,-0.3 4.5,0.1 5.9,10.1 z m 47.5,22.8 1.8,-8.1 c -2.1,0.4 -4.5,0.6 -7.5,0 -4.3,-1 -8.2,-2.1 -5.7,-12.9 l 0.7,-3.2 c 2.4,-10.4 6.3,-10.4 10.5,-9.4 4.2,1 5.5,2.3 7.1,3.3 l 2.1,-9.2 c -1.8,-1.2 -6.2,-2.9 -10.2,-3.8 -12.3,-2.8 -22.9,4.1 -25.4,15.4 l -0.7,3.1 c -2.6,11.6 3.4,21.4 17.4,24.5 2.8,0.6 8.5,0.8 9.9,0.3 z m 44.5,-12 4.2,-7.4 -31.3,-17.9 -4.2,7.4 9,5.2 -16.9,29.6 13.5,7.7 16.9,-29.6 z m 22.1,48 2.6,-2 c 10,-7.7 11,-19 3.7,-28.6 -8.2,-10.7 -19.6,-10.7 -28.6,-3.8 l -2.7,2.1 c -10.7,8.2 -10,20 -3.6,28.3 7.3,9.4 18.1,12.1 28.6,4 z M 397,252 c -7.9,6.1 -10,5.1 -11.5,3.2 -1.5,-2 -2,-4.2 6.1,-10.4 l 4.3,-3.3 c 7.8,-6 9.7,-5 11.3,-2.9 1.3,1.7 2.1,4 -5.8,10.1 z"
       id="path6"
       inkscape:connector-curvature="0"
       style="fill:#ffffff" /><path
       class="st1"
       d="m 284.8,336.9 v -10.1 h -35.2 v 51 H 268 v -20.3 h 11.1 v -11 H 268 v -9.6 z m 65.5,40.9 v -51 h -15.9 l -14.7,30.3 -15,-30.3 H 289 v 51 h 12.5 v -23.1 l 10.7,23.1 h 11.2 L 334,354.7 v 23.1 z"
       id="path8"
       inkscape:connector-curvature="0"
       style="fill:#ffffff" /></g></svg>