<?xml version="1.0" encoding="UTF-8" standalone="no"?>
<!-- Generator: Adobe Illustrator 21.0.1, SVG Export Plug-In . SVG Version: 6.00 Build 0)  -->

<svg
   xmlns:dc="http://purl.org/dc/elements/1.1/"
   xmlns:cc="http://creativecommons.org/ns#"
   xmlns:rdf="http://www.w3.org/1999/02/22-rdf-syntax-ns#"
   xmlns:svg="http://www.w3.org/2000/svg"
   xmlns="http://www.w3.org/2000/svg"
   xmlns:xlink="http://www.w3.org/1999/xlink"
   xmlns:sodipodi="http://sodipodi.sourceforge.net/DTD/sodipodi-0.dtd"
   xmlns:inkscape="http://www.inkscape.org/namespaces/inkscape"
   version="1.1"
   id="Слой_1"
   x="0px"
   y="0px"
   viewBox="0 0 108 40"
   xml:space="preserve"
   sodipodi:docname="g-drive-logo.svg"
   width="108"
   height="40"
   inkscape:version="0.92.1 r15371"><metadata
     id="metadata111"><rdf:RDF><cc:Work
         rdf:about=""><dc:format>image/svg+xml</dc:format><dc:type
           rdf:resource="http://purl.org/dc/dcmitype/StillImage" /><dc:title></dc:title></cc:Work></rdf:RDF></metadata><defs
     id="defs109" /><sodipodi:namedview
     pagecolor="#ffffff"
     bordercolor="#666666"
     borderopacity="1"
     objecttolerance="10"
     gridtolerance="10"
     guidetolerance="10"
     inkscape:pageopacity="0"
     inkscape:pageshadow="2"
     inkscape:window-width="1280"
     inkscape:window-height="971"
     id="namedview107"
     showgrid="false"
     inkscape:zoom="0.39333333"
     inkscape:cx="211.01694"
     inkscape:cy="300"
     inkscape:window-x="-8"
     inkscape:window-y="-8"
     inkscape:window-maximized="1"
     inkscape:current-layer="Слой_1" /><style
     type="text/css"
     id="style2">
	.st0{clip-path:url(#SVGID_2_);fill:#FFFFFF;}
	.st1{clip-path:url(#SVGID_4_);fill:#FFFFFF;}
	.st2{clip-path:url(#SVGID_6_);fill:#FFFFFF;}
	.st3{clip-path:url(#SVGID_8_);fill:#FFFFFF;}
	.st4{clip-path:url(#SVGID_10_);fill:#FFFFFF;}
	.st5{clip-path:url(#SVGID_12_);fill:#FFFFFF;}
	.st6{clip-path:url(#SVGID_14_);fill:#FFFFFF;}
	.st7{fill:#FFFFFF;}
</style><g
     id="g104"
     transform="matrix(0.23985992,0,0,0.23781213,-15.288027,-56.932224)"><g
       id="g14"><defs
         id="defs5"><polygon
           id="SVGID_1_"
           points="361,321.7 384.5,266.6 360.4,266.6 337,321.7 " /></defs><use
         xlink:href="#SVGID_1_"
         style="overflow:visible;fill:#ffffff"
         id="use7"
         x="0"
         y="0"
         width="100%"
         height="100%" /><clipPath
         id="SVGID_2_"><use
           xlink:href="#SVGID_1_"
           style="overflow:visible"
           id="use9"
           x="0"
           y="0"
           width="100%"
           height="100%" /></clipPath><rect
         x="337"
         y="266.60001"
         class="st0"
         width="47.5"
         height="55"
         clip-path="url(#SVGID_2_)"
         id="rect12"
         style="fill:#ffffff" /></g><g
       id="g26"><defs
         id="defs17"><path
           id="SVGID_3_"
           d="m 438.9,266.6 -34.7,40.4 17.2,-40.3 h -24.3 l -19.8,46.8 c -1.9,4.5 1.3,8.2 4.6,8.2 h 24.4 c 5.1,0 8.6,-4.3 8.6,-4.3 l 43.4,-50.7 h -19.4 z"
           inkscape:connector-curvature="0" /></defs><use
         xlink:href="#SVGID_3_"
         style="overflow:visible;fill:#ffffff"
         id="use19"
         x="0"
         y="0"
         width="100%"
         height="100%" /><clipPath
         id="SVGID_4_"><use
           xlink:href="#SVGID_3_"
           style="overflow:visible"
           id="use21"
           x="0"
           y="0"
           width="100%"
           height="100%" /></clipPath><rect
         x="375.39999"
         y="266.60001"
         class="st1"
         width="83"
         height="55"
         clip-path="url(#SVGID_4_)"
         id="rect24"
         style="fill:#ffffff" /></g><g
       id="g38"><defs
         id="defs29"><path
           id="SVGID_5_"
           d="m 473.6,266.6 c -3,0 -9.8,0 -12.9,7 L 444.2,312 c -2.7,5.7 1.6,9.7 7.6,9.7 h 38.8 l 5.1,-12 h -24.1 c -1,0 -1.4,-0.3 -1.6,-0.6 -0.4,-0.5 -0.2,-1.2 0,-1.6 l 3.3,-7.7 h 26.6 l 5.1,-11.9 h -26.6 l 3.1,-7.3 c 0.2,-0.4 0.8,-1.8 3.5,-1.8 h 23.8 l 5.2,-12.1 h -40.4 z"
           inkscape:connector-curvature="0" /></defs><use
         xlink:href="#SVGID_5_"
         style="overflow:visible;fill:#ffffff"
         id="use31"
         x="0"
         y="0"
         width="100%"
         height="100%" /><clipPath
         id="SVGID_6_"><use
           xlink:href="#SVGID_5_"
           style="overflow:visible"
           id="use33"
           x="0"
           y="0"
           width="100%"
           height="100%" /></clipPath><rect
         x="441.60001"
         y="266.60001"
         class="st2"
         width="72.400002"
         height="55"
         clip-path="url(#SVGID_6_)"
         id="rect36"
         style="fill:#ffffff" /></g><g
       id="g50"><defs
         id="defs41"><path
           id="SVGID_7_"
           d="m 202.1,239.5 21.1,15.7 h 21.9 c 2.9,0 4.8,0.8 5.8,2.3 1.4,2.1 0.8,5 0.4,6 L 236,299.2 c -1.5,3.3 -4.9,6.8 -17.5,6.8 H 203 l 18.8,-44.3 H 197 l -25.6,59.9 h 53.7 c 24.8,0 28.7,-7 34.1,-19.1 L 271.6,274 c 2.9,-7.1 6.4,-17 0.8,-25.3 -4.9,-7.2 -12.9,-9.3 -21,-9.3 h -49.3 z"
           inkscape:connector-curvature="0" /></defs><use
         xlink:href="#SVGID_7_"
         style="overflow:visible;fill:#ffffff"
         id="use43"
         x="0"
         y="0"
         width="100%"
         height="100%" /><clipPath
         id="SVGID_8_"><use
           xlink:href="#SVGID_7_"
           style="overflow:visible"
           id="use45"
           x="0"
           y="0"
           width="100%"
           height="100%" /></clipPath><rect
         x="171.5"
         y="239.5"
         class="st3"
         width="106.6"
         height="82.199997"
         clip-path="url(#SVGID_8_)"
         id="rect48"
         style="fill:#ffffff" /></g><g
       id="g62"><defs
         id="defs53"><path
           id="SVGID_9_"
           d="m 288,266.6 -23.5,55 h 24 l 18.3,-42.9 h 8.5 c 3.7,-0.1 5.3,1 5.7,2.3 3,8.3 -22.1,19 -22.1,19 l 37,37.5 h 3.9 l -18.5,-35.3 c 3,-1.6 22.1,-7.6 21.3,-22.7 -0.4,-7.4 -6.5,-12.9 -23.4,-12.9 z"
           inkscape:connector-curvature="0" /></defs><use
         xlink:href="#SVGID_9_"
         style="overflow:visible;fill:#ffffff"
         id="use55"
         x="0"
         y="0"
         width="100%"
         height="100%" /><clipPath
         id="SVGID_10_"><use
           xlink:href="#SVGID_9_"
           style="overflow:visible"
           id="use57"
           x="0"
           y="0"
           width="100%"
           height="100%" /></clipPath><rect
         x="264.5"
         y="266.60001"
         class="st4"
         width="78.900002"
         height="70.900002"
         clip-path="url(#SVGID_10_)"
         id="rect60"
         style="fill:#ffffff" /></g><g
       id="g74"><defs
         id="defs65"><polygon
           id="SVGID_11_"
           points="177.5,285.1 185.3,266.6 168.2,266.6 160.5,285.1 " /></defs><use
         xlink:href="#SVGID_11_"
         style="overflow:visible;fill:#ffffff"
         id="use67"
         x="0"
         y="0"
         width="100%"
         height="100%" /><clipPath
         id="SVGID_12_"><use
           xlink:href="#SVGID_11_"
           style="overflow:visible"
           id="use69"
           x="0"
           y="0"
           width="100%"
           height="100%" /></clipPath><rect
         x="160.5"
         y="266.60001"
         class="st5"
         width="24.799999"
         height="18.5"
         clip-path="url(#SVGID_12_)"
         id="rect72"
         style="fill:#ffffff" /></g><g
       id="g86"><defs
         id="defs77"><path
           id="SVGID_13_"
           d="m 116.1,239.5 c -21.8,0 -31.3,7.1 -36.3,17.9 l -10.9,25.3 c -14.7,31.4 5.2,39 19.7,39 h 46.6 l 23.4,-55 H 132.5 L 106,285.1 h 19.8 L 117,306 H 92.4 c 0,0 -8.8,0 -4.6,-9.5 l 14.6,-34.1 c 2.6,-5.7 6.8,-7.2 12.6,-7.2 h 33.8 l 22.8,-15.7 z"
           inkscape:connector-curvature="0" /></defs><use
         xlink:href="#SVGID_13_"
         style="overflow:visible;fill:#ffffff"
         id="use79"
         x="0"
         y="0"
         width="100%"
         height="100%" /><clipPath
         id="SVGID_14_"><use
           xlink:href="#SVGID_13_"
           style="overflow:visible"
           id="use81"
           x="0"
           y="0"
           width="100%"
           height="100%" /></clipPath><rect
         x="54.200001"
         y="239.5"
         class="st6"
         width="117.4"
         height="82.199997"
         clip-path="url(#SVGID_14_)"
         id="rect84"
         style="fill:#ffffff" /></g><g
       id="g102"><polygon
         class="st7"
         points="403.7,407.5 419.5,370.3 435.7,370.3 419.9,407.5 "
         id="polygon88"
         style="fill:#ffffff" /><path
         class="st7"
         d="m 339.8,379.3 -2.1,5 h 18.2 l -3.5,8.1 h -18.1 l -2.3,5.4 c -0.1,0.2 -0.2,0.7 0,1.1 0.2,0.2 0.4,0.4 1.1,0.4 h 16.4 l -3.4,8.2 h -26.4 c -4.1,0 -7.1,-2.7 -5.2,-6.6 l 11.2,-26.2 c 2.1,-4.8 6.9,-4.8 9,-4.8 h 27.5 l -3.5,8.2 h -16.3 c -2.1,0 -2.5,1 -2.6,1.2 z"
         id="path90"
         inkscape:connector-curvature="0"
         style="fill:#ffffff" /><path
         class="st7"
         d="m 325.9,357.6 -21,49.9 h -16.8 c 0,0 13.2,-31.2 15,-35.6 0.8,-1.8 0.6,-1.7 -0.4,-0.6 -4.5,5.3 -18.3,21.3 -26.8,31.2 -3.8,4.5 -4.6,4.9 -7.5,4.9 h -8.9 c -4,0 -3.9,-1.8 -3.6,-5.4 0.6,-7.4 2.5,-25.9 2.9,-30.5 0.2,-1.7 -0.2,-1.4 -0.6,-0.4 -2.1,5 -15.5,36.3 -15.5,36.3 H 231.2 L 253,355.9 c 1.7,-4.2 1.9,-4.2 6,-4.2 h 11.3 c 4.3,0 5.5,0.6 5.1,5.1 -0.5,5 -3.2,32.7 -3.2,32.7 0,0.6 0.6,0.5 0.9,0.1 0.3,-0.4 29.3,-34.2 29.3,-34.2 2.7,-3.5 5.2,-3.7 7.8,-3.7 h 13.7 c 3.3,0.1 3.9,1.2 2,5.9 z"
         id="path92"
         inkscape:connector-curvature="0"
         style="fill:#ffffff" /><path
         class="st7"
         d="m 259.1,351.8 c -4,0 -4.2,0 -6,4.2 l -21.8,51.5 h 11.5 c 0,0 13.4,-31.3 15.5,-36.3 0.4,-1 0.7,-1.3 0.6,0.4 -0.4,4.6 -2.3,23.1 -2.9,30.5 -0.3,3.5 -0.4,5.4 3.6,5.4 h 8.9 c 2.9,0 3.7,-0.5 7.5,-4.9 8.5,-9.9 22.3,-25.9 26.8,-31.2 1,-1.1 1.2,-1.3 0.4,0.6 -1.8,4.4 -15,35.6 -15,35.6 H 305 l 21,-49.9 c 1.9,-4.6 1.3,-5.8 -2.1,-5.8 h -12.4 c -0.4,0 -0.8,0 -1.2,0 -2.6,0 -5.1,0.2 -7.8,3.7 0,0 -29,33.8 -29.3,34.2 -0.4,0.4 -0.9,0.5 -0.9,-0.1 0,0 2.7,-27.7 3.2,-32.7 0.5,-4.5 -0.7,-5.1 -5.1,-5.1 -2.1,-0.1 -9,-0.1 -11.3,-0.1"
         id="path94"
         inkscape:connector-curvature="0"
         style="fill:#ffffff" /><path
         class="st7"
         d="m 401.2,370.2 h -32.4 l -15.9,37.2 v 0 h 33.8 c 7,0 11.7,-3.3 14.2,-9.3 1,-2.5 3.7,-9 6.9,-16.2 2.7,-6.1 0.2,-11.7 -6.6,-11.7 z m -9.7,14.3 c -1.2,2.9 -3.9,9.1 -4.2,10 -1.6,3.8 -2.6,4.9 -7.6,4.8 h -7 l 8.9,-20.9 h 6.1 c 4,0 5.1,3.2 3.8,6.1 z"
         id="path96"
         inkscape:connector-curvature="0"
         style="fill:#ffffff" /><path
         class="st7"
         d="m 401.7,370.2 h -32.4 l -15.9,37.2 h 33.8 c 7,0 11.7,-3.3 14.2,-9.3 1,-2.5 3.7,-9 6.9,-16.2 2.7,-6.1 0.2,-11.7 -6.6,-11.7 z m -9.7,14.3 c -1.2,2.9 -3.9,9.1 -4.2,10 -1.6,3.8 -2.6,4.9 -7.6,4.8 h -7 l 8.9,-20.9 h 6.1 c 4,0 5.1,3.2 3.8,6.1 z"
         id="path98"
         inkscape:connector-curvature="0"
         style="fill:#ffffff" /><path
         class="st7"
         d="m 475.6,370.1 h -13.8 c -3.5,0 -5.8,3 -5.8,3 l -29.5,34.4 h 13.3 l 5.7,-6.6 h 14.9 l -1.1,6.6 h 14.9 c 0,0 4.2,-26.2 5.1,-31.8 0.6,-3.6 -0.8,-5.6 -3.7,-5.6 z m -12.1,11.3 c -0.3,1.8 -1.8,11.1 -1.8,11.1 h -9 c 0,0 8.8,-10.7 9.8,-11.7 0.3,-0.3 1.2,-1 1,0.6 z"
         id="path100"
         inkscape:connector-curvature="0"
         style="fill:#ffffff" /></g></g></svg>