<?xml version="1.0" encoding="UTF-8" standalone="no"?>
<!-- Generator: Adobe Illustrator 21.0.1, SVG Export Plug-In . SVG Version: 6.00 Build 0)  -->

<svg
   xmlns:dc="http://purl.org/dc/elements/1.1/"
   xmlns:cc="http://creativecommons.org/ns#"
   xmlns:rdf="http://www.w3.org/1999/02/22-rdf-syntax-ns#"
   xmlns:svg="http://www.w3.org/2000/svg"
   xmlns="http://www.w3.org/2000/svg"
   xmlns:sodipodi="http://sodipodi.sourceforge.net/DTD/sodipodi-0.dtd"
   xmlns:inkscape="http://www.inkscape.org/namespaces/inkscape"
   version="1.1"
   id="Слой_1"
   x="0px"
   y="0px"
   viewBox="0 0 93 38"
   xml:space="preserve"
   sodipodi:docname="hr-radio-logo.svg"
   width="93"
   height="38"
   inkscape:version="0.92.1 r15371"><metadata
     id="metadata27"><rdf:RDF><cc:Work
         rdf:about=""><dc:format>image/svg+xml</dc:format><dc:type
           rdf:resource="http://purl.org/dc/dcmitype/StillImage" /><dc:title></dc:title></cc:Work></rdf:RDF></metadata><defs
     id="defs25" /><sodipodi:namedview
     pagecolor="#ffffff"
     bordercolor="#666666"
     borderopacity="1"
     objecttolerance="10"
     gridtolerance="10"
     guidetolerance="10"
     inkscape:pageopacity="0"
     inkscape:pageshadow="2"
     inkscape:window-width="1280"
     inkscape:window-height="971"
     id="namedview23"
     showgrid="false"
     inkscape:zoom="0.39333333"
     inkscape:cx="211.01694"
     inkscape:cy="300"
     inkscape:window-x="-8"
     inkscape:window-y="-8"
     inkscape:window-maximized="1"
     inkscape:current-layer="Слой_1" /><style
     type="text/css"
     id="style2">
	.st0{fill-rule:evenodd;clip-rule:evenodd;fill:#FFFFFF;}
</style><g
     id="g20"
     transform="matrix(0.20403595,0,0,0.20277481,-14.670185,-44.99574)"><path
       class="st0"
       d="m 268.9,291.5 v -38.1 h -8.5 c -38.7,0 -70.8,27.9 -77.4,64.6 3,17.5 8.6,41.1 9.3,58.2 -3,7.8 -5.3,11.9 -11.4,17.2 -6.1,-5.4 -8.3,-9.3 -11.3,-17.2 0.7,-17.1 6.3,-40.7 9.4,-58.2 -0.1,-46.8 -49.2,-55 -69.2,-42.6 L 110,222.1 H 71.9 v 185.8 h 37.7 v -85.7 c 0,-8.9 7.3,-16.2 16.2,-16.2 8.9,0 16.2,7.3 16.2,16.2 v 3.1 c 0,0.6 0.1,1.2 0.1,1.9 v 80.7 c 25.8,0 51.7,0 77.6,0 v -75.7 c 0,-22.5 18.2,-40.7 40.7,-40.7 z"
       id="path4"
       inkscape:connector-curvature="0"
       style="clip-rule:evenodd;fill:#ffffff;fill-rule:evenodd" /><path
       class="st0"
       d="m 330.3,348.8 c -5.9,-6.2 -13.4,-9.3 -22.6,-9.3 0,0 0,0 -0.1,0 -9.5,0 -17.5,3.3 -24.1,10.1 -6.6,6.7 -9.9,14.9 -9.9,24.4 0,9.9 3.3,18.2 9.9,24.9 6.6,6.7 14.9,10 24.8,10 8.5,0 16,-3.2 22.3,-9.6 v 8.1 h 12 v -32.8 -33.5 h -12.4 v 7.7 z m -6.1,41.6 c -4.4,4.6 -9.4,6.9 -15.2,6.9 -6.3,0 -11.6,-2.3 -16,-6.8 -4.4,-4.6 -6.6,-10.1 -6.6,-16.4 0,-6.2 2.2,-11.5 6.5,-16 0.3,-0.3 0.5,-0.5 0.8,-0.8 0,0 0,0 0.1,-0.1 0.3,-0.2 0.5,-0.5 0.8,-0.7 0,0 0,0 0.1,-0.1 0.3,-0.2 0.5,-0.4 0.8,-0.6 0,0 0.1,0 0.1,-0.1 0.3,-0.2 0.5,-0.4 0.8,-0.6 0,0 0,0 0.1,0 0.3,-0.2 0.6,-0.4 0.8,-0.6 0,0 0,0 0.1,0 0.3,-0.2 0.6,-0.3 0.9,-0.5 0,0 0,0 0.1,0 0.3,-0.2 0.6,-0.3 0.9,-0.5 0,0 0,0 0,0 0.3,-0.2 0.6,-0.3 0.9,-0.4 0,0 0,0 0,0 0.3,-0.1 0.6,-0.3 1,-0.4 0,0 0,0 0,0 0.3,-0.1 0.7,-0.2 1,-0.3 0,0 0,0 0,0 0.3,-0.1 0.7,-0.2 1,-0.3 0,0 0,0 0,0 0.3,-0.1 0.7,-0.2 1,-0.2 0,0 0.1,0 0.1,0 0.3,-0.1 0.6,-0.1 0.9,-0.2 0.1,0 0.1,0 0.2,0 0.3,0 0.5,-0.1 0.8,-0.1 0.1,0 0.2,0 0.4,0 0.2,0 0.3,0 0.5,0 0.2,0 0.4,0 0.7,0 0.3,0 0.7,0 1,0 6.1,0 11.3,2.4 15.5,7 4.2,4.7 6.4,10.1 6.4,16.2 0,5.7 -2.2,10.9 -6.5,15.6 z"
       id="path6"
       inkscape:connector-curvature="0"
       style="clip-rule:evenodd;fill:#ffffff;fill-rule:evenodd" /><path
       class="st0"
       d="m 410.1,348.5 c -6.1,-6.1 -13.7,-9.2 -22.7,-9.2 -9.5,0 -17.5,3.4 -24.2,10.1 -6.6,6.7 -10,14.9 -10,24.4 0,9.9 3.3,18.2 10,25 6.7,6.7 15,10.1 24.9,10.1 8.6,0 16.1,-3.2 22.4,-9.7 v 8.3 h 12 v -99.6 h -12.4 z m -6.1,41.8 c -4.4,4.6 -9.4,6.9 -15.2,6.9 -6.4,0 -11.7,-2.3 -16.1,-6.8 -4.3,-4.5 -6.5,-10 -6.5,-16.5 0,-6.2 2.2,-11.6 6.5,-16 4.4,-4.5 9.6,-6.7 15.8,-6.7 6.1,0 11.3,2.3 15.6,7.1 4.3,4.7 6.4,10.1 6.4,16.3 0,5.9 -2.2,11.1 -6.5,15.7 z"
       id="path8"
       inkscape:connector-curvature="0"
       style="clip-rule:evenodd;fill:#ffffff;fill-rule:evenodd" /><rect
       x="436.20001"
       y="341"
       class="st0"
       width="12.3"
       height="66.5"
       id="rect10"
       style="clip-rule:evenodd;fill:#ffffff;fill-rule:evenodd" /><path
       class="st0"
       d="m 517.2,349.2 c -7.1,-6.9 -15.3,-10.3 -24.6,-10.3 -9.3,0 -17.3,3.6 -23.9,10.7 -6.6,7.1 -10,15.4 -10,24.8 0,9.6 3.4,17.8 10.1,24.6 6.7,6.9 14.9,10.3 24.4,10.3 9.6,0 17.7,-3.6 24.4,-10.7 6.7,-7.2 10.1,-15.5 10.1,-25.1 0.1,-9.3 -3.5,-17.4 -10.5,-24.3 z m -8.4,41.1 c -4.1,4.5 -9.3,6.7 -15.5,6.7 -6.2,0 -11.4,-2.2 -15.5,-6.7 -4.1,-4.4 -6.2,-9.8 -6.2,-16.1 0,-6.4 2,-11.8 6,-16.3 4,-4.5 9.2,-6.7 15.5,-6.7 6.4,0 11.6,2.3 15.8,6.7 4.1,4.5 6.2,9.9 6.2,16.3 -0.1,6.3 -2.2,11.6 -6.3,16.1 z"
       id="path12"
       inkscape:connector-curvature="0"
       style="clip-rule:evenodd;fill:#ffffff;fill-rule:evenodd" /><path
       class="st0"
       d="m 442.4,323.6 c -3.4,0 -6.1,2.8 -6.1,6.2 0,3.4 2.7,6.2 6.1,6.2 3.4,0 6.2,-2.8 6.2,-6.2 -0.1,-3.5 -2.8,-6.2 -6.2,-6.2 z"
       id="path14"
       inkscape:connector-curvature="0"
       style="clip-rule:evenodd;fill:#ffffff;fill-rule:evenodd" /><path
       class="st0"
       d="m 247.6,341.2 h -0.1 -0.8 -11.5 v 35.3 31.1 h 11.5 0.8 V 377 c 0,-7 1.2,-11.4 6.1,-16.8 4.3,-4.7 9.4,-7 15.6,-7 0.3,0 0.7,0 1,0 v -11.9 c -9.1,0 -16.6,3.1 -22.6,9.3 z"
       id="path16"
       inkscape:connector-curvature="0"
       style="clip-rule:evenodd;fill:#ffffff;fill-rule:evenodd" /><path
       class="st0"
       d="m 181.3,280.7 c 16.2,0 29.4,-13.2 29.4,-29.4 0,-16.2 -13.2,-29.4 -29.4,-29.4 -16.2,0 -29.4,13.2 -29.4,29.4 0,16.3 13.2,29.4 29.4,29.4 z"
       id="path18"
       inkscape:connector-curvature="0"
       style="clip-rule:evenodd;fill:#ffffff;fill-rule:evenodd" /></g></svg>