<?xml version="1.0" encoding="UTF-8" standalone="no"?>
<!-- Generator: Adobe Illustrator 21.0.1, SVG Export Plug-In . SVG Version: 6.00 Build 0)  -->

<svg
   xmlns:dc="http://purl.org/dc/elements/1.1/"
   xmlns:cc="http://creativecommons.org/ns#"
   xmlns:rdf="http://www.w3.org/1999/02/22-rdf-syntax-ns#"
   xmlns:svg="http://www.w3.org/2000/svg"
   xmlns="http://www.w3.org/2000/svg"
   xmlns:sodipodi="http://sodipodi.sourceforge.net/DTD/sodipodi-0.dtd"
   xmlns:inkscape="http://www.inkscape.org/namespaces/inkscape"
   version="1.1"
   id="Слой_1"
   x="0px"
   y="0px"
   viewBox="0 0 94 58"
   xml:space="preserve"
   sodipodi:docname="yum-logo.svg"
   width="94"
   height="58"
   inkscape:version="0.92.1 r15371"><metadata
     id="metadata51"><rdf:RDF><cc:Work
         rdf:about=""><dc:format>image/svg+xml</dc:format><dc:type
           rdf:resource="http://purl.org/dc/dcmitype/StillImage" /><dc:title></dc:title></cc:Work></rdf:RDF></metadata><defs
     id="defs49" /><sodipodi:namedview
     pagecolor="#ffffff"
     bordercolor="#666666"
     borderopacity="1"
     objecttolerance="10"
     gridtolerance="10"
     guidetolerance="10"
     inkscape:pageopacity="0"
     inkscape:pageshadow="2"
     inkscape:window-width="1280"
     inkscape:window-height="971"
     id="namedview47"
     showgrid="false"
     inkscape:zoom="0.39333333"
     inkscape:cx="211.01694"
     inkscape:cy="300"
     inkscape:window-x="-8"
     inkscape:window-y="-8"
     inkscape:window-maximized="1"
     inkscape:current-layer="Слой_1" /><style
     type="text/css"
     id="style2">
	.st0{fill:#FFFFFF;}
</style><g
     id="g44"
     transform="matrix(0.20250641,0,0,0.2045865,-11.522615,-35.23997)"><path
       class="st0"
       d="m 507.3,282.9 c -0.6,-0.6 -1.3,-0.7 -1.6,-0.8 v 0 c -0.4,-0.1 -0.8,-0.1 -1.2,-0.1 -0.9,0.1 -1.8,0.7 -2.2,1.5 -3.4,6.4 -8.8,11.2 -16.5,14.7 -3.1,1.4 -6.6,2.5 -11.2,3.5 -0.3,0.1 -0.6,0.1 -0.8,0.1 -0.4,0.1 -0.7,0 -0.8,0 0,-0.3 -0.1,-0.8 0.1,-1.9 0.1,-0.7 0.3,-1.4 0.5,-2.2 0.2,-0.7 0.4,-1.4 0.5,-2.1 0,0 0.1,0 0.1,0 l 1.6,-0.4 c 3.9,-0.9 8,-1.9 11.9,-3.2 11.2,-4 16.5,-12.3 15.4,-24 -0.6,-5.7 -3.5,-8.7 -8.7,-8.9 -4.2,-0.2 -8.5,0 -12.6,0.5 -0.8,0.1 -1.7,0.2 -2.5,0.3 -11.2,1.7 -19,8.3 -22.5,19.1 -0.4,1.1 -0.7,2.3 -1.1,3.4 -0.6,2 -1.2,3.9 -1.9,5.8 -2.1,5.4 -5.9,9.5 -11.6,12.4 0,-0.2 0.1,-0.4 0.1,-0.6 0.6,-2.2 1.3,-4.7 2.1,-7 0.2,-0.7 0.5,-1.4 0.7,-2.1 1.3,-4.2 3,-9.6 4.6,-14.7 l 2.5,-8.2 c 0.5,-1.4 -0.3,-2.9 -1.6,-3.5 l -10.7,-4.5 -4.2,-1.8 c -0.5,-0.2 -1,-0.3 -1.5,-0.2 h -0.5 c -1.1,0.1 -2.1,0.9 -2.4,2 -1.2,4 -3.3,10.6 -5.2,16.5 0,0 0,0 0,0 -1,3.3 -2,6.4 -2.7,8.7 l -0.2,0.5 c -1.4,0.2 -2.8,0.5 -4.4,0.9 0.3,-1.2 0.7,-2.3 1,-3.4 0.8,-2.6 2.5,-11.5 1.1,-13.2 -1,-1.2 -3.1,-2.6 -7,-2.2 h -0.3 -0.4 c -4.3,0.5 -13.4,1.6 -15.4,7.9 -1.5,4.7 -2.9,9.4 -4,12.7 -0.6,2 -1.3,4.1 -1.9,6.1 -2.1,5.2 -7.3,10.8 -12.5,13.8 0.3,-1 0.6,-2 0.9,-3.1 0.3,-0.9 0.5,-1.8 0.8,-2.7 l 0.2,-0.6 c 0.2,-0.7 0.5,-1.4 0.7,-2.1 1,-3.2 2.1,-6.9 3.2,-10.5 1.1,-3.8 2.3,-7.7 3.4,-11.1 0.5,-1.4 -0.3,-2.9 -1.6,-3.5 -1.8,-0.8 -3.9,-1.9 -6,-3 -4.6,-2.5 -7.1,-3.7 -9.1,-3.5 -0.1,0 -0.2,0 -0.3,0 -1.1,0.2 -1.9,1 -2.2,2 -0.3,0.9 -0.6,1.9 -0.9,2.8 -5,0.8 -9.6,2.3 -13.4,4.5 -0.1,0 -0.2,0.1 -0.2,0.1 -2.9,1.7 -5.4,3.7 -7.4,6 0,0 0,0 0,0 -0.7,0.4 -1.4,0.7 -2.1,1.1 -0.8,0.4 -1.5,0.7 -2.2,1 v 0 c -0.2,0.1 -0.4,0.1 -0.5,0.2 -3,1.2 -5.3,1.7 -6.9,1.9 0.2,-1.6 0.3,-3.3 0.3,-5 -0.2,-4.6 -3.4,-7.9 -8.1,-8.2 -1.1,0 -2.1,0 -3.1,0 0,0 0,0 -0.1,0 0,0 0,0 0,0 -0.2,0 -0.4,0 -0.6,0 -3.5,0.4 -6.5,1.7 -9,3.9 -0.7,0.6 -1.3,0.9 -2.1,1 -0.2,0 -0.3,0 -0.5,0 -0.8,0 -1.6,0.1 -2.4,0.2 -5.5,0.6 -10.2,2.9 -13.8,6.6 -0.1,0.1 -0.3,0.3 -0.4,0.4 0,0 -0.1,0 -0.1,0.1 -0.5,0.5 -0.9,1 -1.3,1.6 -0.5,0.7 -1,1.4 -1.5,2.2 v 0 c -0.2,0.3 -0.4,0.7 -0.6,1 -4.7,8.3 -7.3,17.1 -9.1,24.1 -1.2,0.8 -2.5,1.6 -3.9,2.3 1.5,-3.3 2.5,-6.9 2.8,-10.7 0.4,-4.3 0.3,-10 -3.4,-14.4 -0.5,-0.6 -1.1,-1.2 -1.8,-1.8 -0.6,-0.5 -1.3,-1 -2.1,-1.5 0.1,-0.1 0.3,-0.2 0.4,-0.3 5.3,-3.5 9.7,-7.2 13.3,-11.4 2.8,-3.2 6.2,-7.6 7.6,-13.4 1.1,-4.3 0.6,-8.2 -1.2,-11.4 -0.1,-0.2 -0.3,-0.5 -0.4,-0.7 -0.5,-0.7 -1,-1.3 -1.5,-1.9 -1,-1 -2.3,-1.9 -3.7,-2.5 v 0 c -0.9,-0.5 -2,-0.8 -3.1,-1.1 -0.6,-0.1 -1.2,-0.2 -1.8,-0.3 -3.5,-0.5 -6.9,-0.5 -10.2,-0.2 -5.6,0.6 -10.5,2.5 -14.8,5.6 0,0 -0.1,0 -0.2,0 -0.4,-0.1 -0.8,-0.2 -1.2,-0.3 v 0 c -0.6,-0.1 -1.1,-0.2 -1.7,-0.4 -3.1,-0.6 -5.9,-1 -8.6,-1.2 -0.7,0 -1.5,-0.1 -2.2,-0.1 v 0 c -1.7,0 -3.3,0 -4.9,0.2 -2.3,0.3 -4.1,0.7 -5.5,1.1 0,0 0,0 -0.1,0 -1.1,0.3 -2.1,0.7 -2.9,1.1 -2,1.1 -3.1,2.5 -3.7,3.6 v 0 c -0.1,0.2 -0.2,0.4 -0.2,0.5 -0.3,0.6 -0.4,1.3 -0.5,1.9 -0.1,0.9 0,1.7 0.3,2.5 0.1,0.3 0.2,0.6 0.4,0.9 0.5,0.8 1.2,1.4 2.1,2 0.3,0.2 0.6,0.3 0.9,0.4 0.7,0.3 1.4,0.6 2.3,0.8 1,0.2 1.9,0.2 2.7,0.1 0.1,0 0.3,0 0.5,0 0.1,0 0.3,0 0.4,-0.1 0.1,0 0.2,0 0.3,0 -0.1,0.4 -0.2,0.8 -0.3,1.2 v 0.1 0 l -0.1,0.2 -0.5,1.7 -0.7,2.3 -3,9.5 v 0 l -3.6,11.5 c -1.8,5.7 -3.6,11.4 -5.4,17.1 v 0 c -3.1,9.8 -6.2,19.6 -9.3,29.5 -0.3,0.8 -0.5,1.7 -0.7,2.6 -0.1,0.4 -0.2,0.8 -0.3,1.3 -0.2,0.8 -0.1,1.7 0.4,2.4 0,0.1 0.1,0.2 0.2,0.3 0.6,0.7 1.6,1.1 2.6,1 2.5,-0.3 5,-0.6 7.4,-0.8 2.4,-0.3 4.8,-0.5 7.2,-0.8 0,0 0,0 0.1,0 0.9,-0.1 1.7,-0.2 2.5,-0.3 0.9,-0.1 1.8,-0.2 2.6,-0.3 1.4,-0.2 2.7,-0.4 4,-0.6 1.1,-0.2 2.3,-0.4 3.6,-0.7 0,0 0.1,0 0.1,0 0.8,-0.2 13.7,-2.9 26.8,-7.4 0.9,-0.3 1.7,-0.6 2.6,-0.9 0.9,-0.3 1.8,-0.7 2.7,-1 2.1,-0.8 4.2,-1.7 6.2,-2.6 1.7,3.4 5,5.5 9.6,6.1 0.4,0 0.8,0.1 1.2,0.1 1.2,0.1 2.6,0.1 4.3,0.1 1.2,0 2.3,-0.1 3.4,-0.2 0,0 0,0 0,0 0.3,0 0.5,0 0.8,-0.1 1.8,-0.2 3.5,-0.5 5.1,-0.9 9.7,-2.5 16.6,-8.7 20.4,-18.5 1.4,-3.6 3.6,-9.9 4.6,-12.9 1.4,-0.3 3.3,-0.9 5.6,-2 -12.6,25.8 -24.2,47.8 -62.7,52.3 -6.9,0.8 -14.6,1 -23,0.7 -2.4,-0.1 -4.8,-0.2 -7.2,-0.3 -1.1,-0.1 -2.2,-0.1 -3.4,-0.2 -1.1,-0.1 -2.1,-0.1 -3.2,-0.2 -2.2,-0.1 -4.3,-0.2 -6.6,-0.3 -5,-0.3 -10.1,-0.5 -15.3,-0.8 -9.1,-0.4 -18.4,-0.8 -28,-0.8 -11.3,-0.1 -22.8,0.1 -34.5,1.1 3.9,-0.7 7.2,-2 9.9,-4 1.5,1.5 3.5,2.6 6.5,2.2 0.6,-0.1 1.3,-0.2 2.1,-0.4 9.5,-2.3 18.1,-7.5 25.5,-15.3 1.9,-2 3.4,-4.4 4.8,-6.6 0.3,-0.5 0.7,-1.1 1,-1.6 1,-1.5 0.9,-4 -0.2,-5.4 -0.8,-1 -1.7,-1.9 -2.5,-2.7 -0.3,-0.3 -0.6,-0.6 -0.9,-0.9 -0.1,-0.1 -0.1,-0.2 -0.2,-0.2 -0.6,-0.5 -1.4,-0.7 -2.2,-0.6 v 0 c -0.9,0.1 -1.6,0.6 -2.1,1.3 v 0 c 0,0 0,0.1 -0.1,0.1 -3.1,5.5 -6.9,9.3 -11.6,11.7 -0.1,0.1 -0.3,0.2 -0.5,0.3 0,-0.2 0.1,-0.3 0.1,-0.5 1.8,-6 3.7,-12.1 5.6,-18.1 0.7,-2.1 1.3,-4.2 2,-6.4 0.5,-1.5 0.9,-3 1.4,-4.6 l 0.7,-2.3 c 0.3,-0.9 0.1,-2 -0.5,-2.7 -0.2,-0.2 -0.4,-0.4 -0.6,-0.5 h -0.4 l -2.7,0.3 c -0.4,0 -0.8,0.1 -1.1,0.1 v 0 c 0.2,0 4.2,-0.5 4.2,-0.5 -0.1,-0.1 -0.6,-0.4 -1.2,-0.6 l -2.9,0.3 c -0.5,0.1 -0.9,0.1 -1.4,0.2 -1.1,0.1 -2.1,0.3 -3.1,0.4 -0.8,0.1 -1.6,0.2 -2.3,0.2 -0.1,0 -0.2,0 -0.2,0 -0.6,0 -1.1,0.1 -1.7,0.1 -0.2,0 -0.5,0 -0.7,0.1 -1,0.1 -1.8,0.4 -2.5,0.7 -0.5,-0.2 -1,-0.3 -1.6,-0.5 -0.1,0 -0.3,-0.1 -0.4,-0.1 -0.8,-0.2 -1.6,-0.3 -2.4,-0.3 v 0 c -1.1,-0.3 -2.3,-0.4 -3.6,-0.4 h -0.1 c -0.2,0 -0.3,0 -0.5,0 -0.8,0 -1.6,0.1 -2.4,0.2 -1.3,0.2 -2.6,0.4 -3.8,0.7 -0.2,0.1 -0.5,0.1 -0.7,0.2 -4.6,1.5 -8.6,4.3 -11.7,8.6 -0.4,0.5 -0.8,1.1 -1.1,1.6 v 0 l -0.2,0.1 c 0,0 0,0.1 0,0.1 -3.8,5.7 -6.1,11.8 -8.5,18.7 -1.7,4.7 -4.9,8.2 -10.2,10.8 4.9,-15.6 9.9,-31.3 14.7,-46.6 l 5.1,-16.2 c 0.6,-2.1 1.3,-4.2 2,-6.3 0.3,-1 0.6,-2 0.9,-3 0.3,-0.9 0.1,-2 -0.5,-2.7 -0.3,-0.4 -0.7,-0.7 -1.2,-0.9 v 0 c -0.4,-0.2 -0.9,-0.2 -1.4,-0.2 -1.7,0.2 -3.3,0.4 -4.9,0.6 -1.6,0.2 -3.1,0.4 -4.6,0.5 -2.8,0.3 -5,0.6 -7,0.8 -0.1,0 -0.1,0 -0.2,0 -2.8,0.3 -4.5,1.8 -5.4,4.6 -1.2,4 -2.5,8 -3.7,12.1 -2.3,7.4 -4.8,15.1 -7.5,23.7 -2.1,0.3 -4.2,0.6 -5.8,0.8 -0.7,0.1 -1.3,0.1 -2,0.2 0.6,-2 1.3,-4 1.9,-6 1.7,-5.4 3.5,-11 5.1,-16.6 1.2,-4.3 0.9,-7.7 -1,-10.3 -1.8,-2.5 -4.9,-3.9 -9.2,-4.1 -2.3,-0.1 -4.6,0 -6.9,0.1 -0.3,0 -0.7,0 -1,0.1 -0.7,0 -1.3,0.1 -2,0.2 -1,0.1 -2,0.2 -3,0.3 -0.5,0 -1,0.1 -1.5,0.2 -0.3,0 -0.5,0.1 -0.8,0.1 -0.7,0.1 -1.3,0.1 -2,0.2 H 87 c -2.2,0.3 -4.5,1.4 -5.8,3 -0.8,0.9 -1.3,2.2 -1.5,3.5 0,0 0,0 0,0 -0.2,1.1 -0.2,2.2 0.1,3.1 0.5,1.8 2.1,3.1 4.9,4 1,0.3 2,0.3 2.7,0.2 0.2,0 0.4,-0.1 0.6,-0.1 0.1,0 0.3,0 0.5,-0.1 0.1,0 0.2,0 0.3,0 h 0.4 c 0,0.1 0,0.2 -0.1,0.3 -0.1,0.4 -0.2,0.7 -0.3,1.1 -0.1,0.2 -0.1,0.4 -0.2,0.6 L 82.3,304 c -5.5,17.8 -11,35.5 -16.5,53.3 -0.2,0.5 -0.3,1 -0.5,1.6 -0.1,0.3 -0.2,0.6 -0.2,0.9 -0.3,0.9 0,1.9 0.6,2.7 0.6,0.7 1.6,1.1 2.6,1 l 19.6,-2.3 c 1.1,-0.1 2.1,-0.9 2.4,-2 0.1,-0.3 0.2,-0.6 0.3,-0.9 0.2,-0.6 0.4,-1.3 0.6,-1.9 l 2.8,-8.9 c 3,-9.6 6.1,-19.5 9.2,-29.2 0,-0.1 0,-0.1 0.1,-0.2 2,-0.3 4,-0.5 5.6,-0.7 0.7,-0.1 1.4,-0.2 2.1,-0.2 -0.9,2.8 -1.7,5.6 -2.6,8.4 -2,6.3 -4,12.7 -6,19.1 -1.5,4.8 0.4,9.6 4.9,12.2 2.4,1.4 5.1,1.9 8,1.6 0.5,-0.1 1,-0.1 1.5,-0.2 6.6,-1.4 12.9,-4.5 19.8,-9.8 0.4,-0.3 0.8,-0.6 1.1,-0.9 2.4,4.6 5.8,6.7 10.8,6.8 -2.2,0.2 -4.3,0.4 -6.5,0.7 -25.5,3 -47.7,9.1 -67.4,18.6 0,0 -0.1,0 -0.1,0.1 -3.3,1.6 -6.5,3.2 -9.6,5 -0.6,0.3 -1,0.9 -1.3,1.5 0,0 0,0 0,0 -0.1,0.2 -0.1,0.4 -0.2,0.6 -0.1,0.9 0.2,1.8 0.8,2.5 0.2,0.2 19.2,19.7 16.3,34.5 -0.3,1.3 0.4,2.6 1.5,3.1 0.5,0.3 1.1,0.4 1.7,0.3 0.7,-0.1 1.3,-0.4 1.8,-0.9 0.1,-0.1 9.5,-9.9 26.4,-20.5 11.8,-7.4 29.1,-16.3 50.7,-21.8 6.9,-1.7 14.1,-3.1 21.8,-4 13.3,-1.5 26.8,-1.5 40.3,0.1 16.7,2 31.2,2.7 43.9,2 0,0 0,0 0,0 2.4,-0.1 4.8,-0.3 7.1,-0.6 0.7,-0.1 1.5,-0.1 2.2,-0.2 2.2,-0.3 4.3,-0.6 6.3,-0.9 v 0 c 20.8,-3.5 36.2,-11.8 48.3,-25.7 6.5,-7.6 11.8,-16.4 16.6,-26.3 1,-2 2,-4.1 3,-6.3 0.8,-1.7 1.6,-3.4 2.3,-5.2 0.1,1.5 0.1,2.9 0.1,4.4 0,0 0,0 0,0 -0.3,1.5 -0.4,3 -0.2,4.3 0,0 0,0 0,0 0.2,2.1 1,4 2.3,5.6 2.3,2.7 5.9,3.9 10.2,3.4 0.7,-0.1 1.4,-0.2 2.1,-0.4 3.1,-0.7 6.1,-1.8 9.1,-3.4 0.1,0 0.1,-0.1 0.2,-0.1 1.5,-0.8 3,-1.7 4.6,-2.7 -0.3,0.6 -0.4,1.2 -0.3,1.7 0.1,1.2 0.9,2.1 2,2.4 0.1,0.1 0.3,0.1 0.4,0.1 0.3,0 0.6,0.1 0.9,0 1.5,-0.2 3.1,-0.4 4.8,-0.6 0.2,0 0.4,0 0.6,-0.1 0.2,0 0.4,0 0.6,-0.1 1.3,-0.2 2.6,-0.3 3.9,-0.5 0.8,-0.1 1.5,-0.2 2.3,-0.3 0.2,0 0.5,0 0.7,-0.1 1.8,-0.2 3.4,-0.4 4.9,-0.5 0.1,0 0.1,0 0.2,0 0.3,0 0.6,-0.1 0.9,-0.2 0.3,0 0.5,-0.1 0.7,-0.2 2.3,-0.8 3.1,-2.7 3.6,-4.1 1.5,-4.9 1.2,-4.5 2.8,-9.7 v 0 c 0.1,-0.2 0.2,-0.5 0.2,-0.8 0.1,-0.3 0.2,-0.6 0.3,-0.8 v 0 c 0.5,-1.7 1.1,-3.3 1.6,-5 0.9,-1.3 2.6,-2 3.9,-2.1 0,0 0.1,0 0.1,0 0.1,0.7 0.2,1.5 0.2,2.2 0,0 0,0 0,0 -0.1,0.2 -0.1,0.3 -0.2,0.5 l -0.2,0.5 c 0,-0.1 0,-0.2 0,-0.2 0,0 0,0 0,0 -0.1,0.2 -0.2,0.6 -0.2,0.8 0,0 0.1,-0.2 0.1,-0.4 v -0.1 c -0.1,0.2 -0.2,0.5 -0.3,1 -1.3,4.3 -0.9,8.2 1,11 0.2,0.3 0.4,0.6 0.6,0.9 0,0 0,0 0.1,0.1 2.3,2.8 6.1,4 10.5,3.5 0.5,-0.1 1,-0.1 1.5,-0.2 0.2,0 0.5,-0.1 0.7,-0.1 6.2,-1.5 12.1,-4.5 18.8,-9.7 0.5,-0.4 0.9,-0.7 1.4,-1.1 1.8,4.5 5.1,6.2 11.3,6.7 1.7,0.1 3.4,0 4.9,0 0.4,0 0.8,0 1.1,-0.1 1.4,-0.1 2.8,-0.2 4.1,-0.3 14.2,-1.7 26.1,-8.6 35.3,-20.5 2,-2.6 3.3,-4.5 3,-6.8 -0.3,-2.4 -2.1,-4 -4.3,-6 z M 418,276.8 c -0.5,2.5 -1.4,5.5 -1.6,6.1 -0.3,0.9 -0.5,1.9 -0.8,2.8 -0.1,0.2 -0.1,0.4 -0.2,0.6 -0.5,1.7 -1.1,3.6 -1.7,5.6 -0.1,0.4 0,0.9 0.3,1.1 0.2,0.2 0.5,0.3 0.7,0.3 0.1,0 0.3,0 0.5,-0.1 0.5,-0.2 1,-0.4 1.5,-0.6 0.1,0 0.3,-0.1 0.4,-0.2 0.9,-0.4 1.7,-0.7 2.6,-0.9 2.3,-0.8 4.3,-1.1 6.2,-1.2 0.5,0 0.9,-0.3 1,-0.8 l 0.7,-2.5 c 0.2,-0.5 0.3,-1.1 0.5,-1.8 1.9,-6.3 5.3,-17 7,-22.4 l 13.3,5.6 -2.2,7.3 c -1.6,5.1 -3.2,10.5 -4.5,14.7 -0.2,0.7 -0.4,1.4 -0.7,2.1 -0.8,2.4 -1.6,4.9 -2.2,7.3 -0.1,0.6 -0.2,1.2 -0.4,1.9 -0.4,1.6 -0.3,2.8 0.5,3.6 0.4,0.5 1.1,0.9 2.3,0.8 0.5,-0.1 1.1,-0.3 1.8,-0.5 7.3,-3.4 12.3,-8.5 14.9,-15.2 0.8,-2 1.4,-4.1 2,-6.1 0.3,-1.1 0.7,-2.2 1,-3.3 0.4,-1.2 0.8,-2.3 1.3,-3.3 0.5,-1.1 1,-2 1.6,-3 0.9,-1.4 1.9,-2.6 3,-3.8 3.4,-3.4 7.9,-5.5 13.3,-6.3 4.6,-0.7 9.5,-0.9 14.3,-0.8 3.2,0.1 4.5,1.5 4.8,5.3 1,10 -3.2,16.5 -12.7,19.9 -3.7,1.3 -7.6,2.2 -11.4,3.1 l -1.6,0.4 c -1.3,0.3 -2.7,0.8 -3.1,2.8 -0.1,0.7 -0.3,1.4 -0.5,2.2 -0.2,0.8 -0.4,1.6 -0.6,2.5 -0.5,2.5 -0.2,4.3 0.9,5.4 1.1,1.2 2.9,1.5 5.5,0.9 3.1,-0.7 5.7,-1.4 8.1,-2.2 0.9,-0.3 1.9,-0.7 2.7,-1 0.4,-0.2 0.8,-0.4 1.3,-0.5 1.5,-0.7 3,-1.4 4.3,-2.2 5.9,-3.4 10.4,-7.8 13.5,-13.2 3.1,2.8 2.9,3 0.1,6.6 -1.5,1.9 -3,3.6 -4.6,5.3 -0.9,1 -1.9,1.9 -2.9,2.8 -0.7,0.6 -1.4,1.1 -2,1.7 -0.7,0.5 -1.4,1.1 -2.1,1.5 -7.2,4.9 -15.4,7.6 -24.7,8 -0.4,0 -0.8,0 -1.1,0.1 -1.5,0.1 -3,0.2 -4.5,0.1 -0.4,0 -0.8,-0.1 -1.1,-0.1 -0.7,-0.1 -1.3,-0.2 -1.9,-0.3 -3.7,-0.8 -5,-2.6 -5.9,-7.7 -0.1,-0.4 -0.3,-0.7 -0.7,-0.8 -0.4,-0.1 -0.8,0 -1.1,0.2 -0.5,0.4 -1,0.9 -1.5,1.3 -1.1,0.9 -2.1,1.8 -3.2,2.7 -4.3,3.3 -8.2,5.7 -12,7.3 -0.7,0.3 -1.4,0.5 -2.1,0.8 -0.5,0.2 -1.1,0.3 -1.6,0.5 -0.5,0.1 -1.1,0.3 -1.6,0.4 0,0 0,0 0,0 -0.3,0.1 -0.5,0.1 -0.8,0.2 -0.3,0 -0.5,0.1 -0.8,0.1 -1.5,0.2 -2.9,0.1 -4,-0.2 -1.3,-0.3 -2.3,-1 -3.1,-1.9 -1.6,-1.9 -1.9,-4.8 -0.9,-8.3 0.1,-0.4 0.2,-0.7 0.3,-0.9 L 422,306 c 0.2,-0.8 0.5,-1.5 0.7,-2.3 l 0.3,-1.2 c 0,-0.1 0,-0.1 0,-0.2 0.1,-0.6 0,-1.1 -0.1,-1.5 0,-0.2 -0.1,-0.3 -0.1,-0.5 -0.1,-0.2 -0.1,-0.3 -0.2,-0.4 -0.2,-0.3 -0.4,-0.6 -0.6,-0.8 -0.9,-0.9 -2.5,-1.4 -4.3,-1.2 -0.1,0 -0.2,0 -0.3,0 -0.1,0 -0.1,0 -0.2,0 -2.2,0.3 -4.3,1.4 -5.8,2.9 -0.1,0.2 -0.3,0.3 -0.4,0.5 -0.2,0.3 -0.5,0.6 -0.6,0.9 0,0.1 -0.1,0.1 -0.1,0.2 -0.7,2.1 -1.3,4.2 -2,6.2 -1.8,5.6 -1.6,5.4 -2.8,9.6 -0.1,0.3 -0.2,0.6 -0.3,0.9 -0.2,0.5 -0.3,0.8 -0.5,1.1 -0.3,0.4 -0.7,0.5 -1.3,0.6 h -0.1 c -1.4,0.1 -2.9,0.3 -4.6,0.5 -0.2,0 -0.4,0 -0.6,0.1 -0.8,0.1 -1.7,0.2 -2.7,0.3 -1.2,0.2 -2.3,0.3 -3.5,0.4 -0.2,0 -0.3,0 -0.5,0.1 -0.4,0 -0.8,0.1 -1.1,0.1 -0.8,0.1 -1.5,0.2 -2.3,0.3 0,-0.1 0,-0.1 0,-0.2 0.7,-2.5 1.5,-5.1 2.5,-8.2 0.2,-0.5 0,-1 -0.4,-1.2 -0.4,-0.3 -0.9,-0.2 -1.3,0.1 l -0.8,0.7 c -0.9,0.8 -1.7,1.5 -2.6,2.2 0,-0.7 0,-1.2 0,-1.5 0,0.3 0,0.8 -0.1,1.6 -0.1,0.1 -0.3,0.2 -0.4,0.3 -6,4.7 -11.2,7.3 -16.6,8.6 -3.7,0.9 -6.7,0.2 -8.4,-1.7 -1.5,-1.8 -1.8,-4.6 -0.8,-7.9 0.5,-1.8 1.1,-3.3 1.8,-5 1.2,-3.1 2.7,-7 4.8,-15.3 0.1,-0.2 0.1,-0.4 0.2,-0.6 0,0 0,-0.1 0,-0.1 0,0 0,0 0,0 v -0.2 c 0,0 0,-0.1 0,-0.1 2.5,-7.5 0.4,-8.9 -0.3,-9.1 -0.4,-0.1 -0.8,-0.2 -1.1,-0.1 -1.9,0.2 -3.7,2.3 -5.3,6.2 l -1.5,3.7 c -1.3,3.2 -2.6,6.3 -3.9,9.3 -0.6,1.5 -1.2,2.9 -1.9,4.3 -0.7,1.7 -1.4,3.3 -2.2,4.9 0,0 0,0 0,0 -14.3,31.8 -29.9,53.9 -71.9,58.8 -1.5,0.2 -3.1,0.3 -4.7,0.5 -2.1,0.2 -4.3,0.3 -6.5,0.4 0,0 0,0 0,0 -1.9,0.1 -3.8,0.1 -5.7,0.1 -10.5,0.1 -22.2,-0.6 -35.4,-2.2 -13.8,-1.7 -27.7,-1.7 -41.3,-0.1 -8.2,0.9 -15.9,2.5 -23.2,4.4 -41.1,10.7 -68.3,33.9 -76,41.1 0.5,-14.2 -12.9,-29.8 -16.7,-33.9 21.3,-11.8 45.7,-19.1 74.4,-22.5 3.9,-0.5 7.7,-0.8 11.6,-1.1 26.9,-2.1 53.4,-0.7 77.1,0.6 3.7,0.2 7.3,0.4 10.8,0.6 1.2,0.1 2.4,0.1 3.5,0.2 1.3,0.1 2.5,0.1 3.8,0.2 0.8,0 1.6,0.1 2.3,0.1 8.6,0.3 16.5,0.1 23.6,-0.7 41.7,-4.9 53.3,-28.8 66.8,-56.6 1.2,-2.6 2.5,-5.2 3.9,-7.9 0.1,-0.2 0.1,-0.4 0.1,-0.6 0,-0.2 0,-0.7 -0.5,-1 -0.2,-0.2 -0.6,-0.3 -0.9,-0.3 -0.2,0 -0.5,0.1 -0.7,0.4 -6.6,6.7 -13,7.7 -14.2,7.9 -0.1,0 -0.1,0 -0.1,0 -0.5,0 -0.8,0.3 -1,0.8 0,0.1 -3.2,9.7 -5,14.4 -2.6,6.6 -6.5,11.2 -12,14 -1.5,0.8 -3,1.4 -4.7,1.9 0,0 0,0 0,0 v 0 c -1.6,0.5 -3.3,0.8 -5.1,1 -0.1,0 -0.3,0 -0.4,0.1 -1.2,0.1 -2.5,0.2 -3.9,0.3 -2,0 -3.5,0 -4.8,-0.2 -2.5,-0.3 -4.3,-1.1 -5.5,-2.4 -0.1,-0.1 -0.3,-0.3 -0.4,-0.4 -0.2,-0.3 -0.5,-0.7 -0.6,-1 -0.2,-0.4 -0.3,-0.7 -0.5,-1.2 -0.1,-0.2 -0.1,-0.4 -0.2,-0.6 0,-0.2 -0.1,-0.4 -0.1,-0.7 0,-0.1 0,-0.2 -0.1,-0.3 -0.1,-0.2 -0.3,-0.4 -0.5,-0.6 -0.3,-0.2 -0.7,-0.2 -1,0 -3.3,1.7 -7,3.2 -10.8,4.7 -0.8,0.3 -1.7,0.6 -2.5,0.9 -0.8,0.3 -1.6,0.6 -2.4,0.8 -11.9,4 -23.4,6.5 -24.5,6.7 0,0 -0.1,0 -0.1,0 -1.2,0.3 -2.4,0.5 -3.5,0.6 -1.7,0.3 -3.4,0.5 -5.4,0.8 -0.8,0.1 -1.7,0.2 -2.5,0.3 -0.3,0 -0.7,0.1 -1.1,0.1 -0.5,0.1 -0.9,0.1 -1.4,0.2 -1.9,0.2 -3.8,0.4 -5.8,0.6 -1.9,0.2 -3.9,0.4 -5.8,0.6 0.2,-0.8 0.4,-1.5 0.6,-2.2 1.8,-5.9 3.7,-11.7 5.5,-17.6 v 0 c 0.6,-1.9 1.2,-3.9 1.8,-5.8 0.8,-2.7 1.7,-5.3 2.5,-8 v 0 c 1.6,-5.1 3.2,-10.2 4.8,-15.3 l 3.3,-10.4 v 0 l 2.5,-8 v 0 L 241,270 v 0 l 0.3,-0.9 c 0.2,-0.6 0.4,-1.2 0.5,-1.9 0.2,-1.2 0.1,-2.1 -0.4,-2.9 0,-0.1 -0.1,-0.2 -0.2,-0.3 -0.1,-0.1 -0.2,-0.2 -0.3,-0.3 -0.1,-0.1 -0.2,-0.2 -0.3,-0.3 v 0 c -0.6,-0.5 -1.4,-0.7 -2.4,-0.8 -0.5,0 -0.9,0 -1.2,0.1 l -0.9,0.1 c -0.4,0 -0.9,0.1 -1.2,0 -0.4,-0.1 -0.8,-0.2 -1.1,-0.3 -0.4,-0.2 -0.8,-0.3 -1,-0.5 -0.3,-0.2 -0.5,-0.4 -0.6,-0.6 -0.2,-0.3 -0.3,-0.9 0,-1.7 0.3,-0.7 1.2,-2.1 4.1,-2.8 0.6,-0.2 1.4,-0.3 2.2,-0.5 0.7,-0.2 1.5,-0.3 2.4,-0.4 v 0 c 0.1,0 0.3,0 0.4,0 2.6,-0.3 5.4,-0.3 8.5,0 v 0 c 0.6,0.1 1.2,0.1 1.9,0.2 1.7,0.2 3.6,0.6 5.5,1 0.9,0.2 1.7,0.4 2.6,0.6 0.3,0.1 0.7,0 0.9,-0.2 4,-3.1 8.7,-5 14,-5.7 1.9,-0.2 3.9,-0.3 5.9,-0.2 0,0 0,0 0,0 1.1,0 2.2,0.2 3.3,0.3 1.8,0.2 3.4,0.8 4.7,1.5 1.1,0.6 2,1.5 2.7,2.5 1.6,2.3 1.9,5.3 1.1,8.8 -0.9,3.9 -3,7.5 -6.7,11.7 -4,4.6 -9.1,8.7 -15.5,12.5 l -1.9,1.2 c -0.3,0.2 -0.6,0.6 -0.5,1 0,0.4 0.3,0.8 0.6,0.9 0.5,0.2 1,0.4 1.5,0.6 0.2,0.1 0.5,0.2 0.7,0.3 0.6,0.3 1.2,0.5 1.8,0.8 0.2,0.1 0.4,0.2 0.5,0.3 0.1,0 0.1,0.1 0.2,0.1 0.5,0.3 0.9,0.6 1.4,1 0.1,0.1 0.3,0.2 0.4,0.4 2.9,2.7 3.9,6.6 3.4,12.4 -0.6,6.9 -3.4,12.8 -8.4,17.8 -0.2,0.2 -0.3,0.5 -0.3,0.8 v 0 c 0,0.2 0.1,0.4 0.2,0.6 0.1,0.1 0.1,0.2 0.2,0.2 0.1,0.1 0.1,0.1 0.2,0.1 0,0 0,0 0,0 0.3,0.1 0.6,0.1 0.9,0 5.7,-2.5 10.9,-5.2 15.4,-8.2 0.2,-0.1 0.4,-0.4 0.5,-0.6 1.7,-6.9 4.3,-15.9 9,-24.2 0.5,-0.9 1,-1.7 1.6,-2.4 0.5,-0.7 1.1,-1.3 1.6,-1.9 0,0 0,0 0,0 0.6,-0.6 1.3,-1.2 1.9,-1.7 1.2,-0.9 2.5,-1.7 4,-2.3 0.9,-0.4 1.7,-0.7 2.7,-0.9 1.6,-0.4 3.2,-0.6 5,-0.7 0.1,0 0.3,0 0.4,0 0.1,0 0.3,0 0.4,0 0.3,0 0.5,-0.1 0.7,-0.1 0.5,-0.1 0.9,-0.2 1.3,-0.4 0.8,-0.3 1.6,-0.8 2.4,-1.5 2.5,-2.3 5.8,-3.2 9.9,-3 0.7,0 1.2,0.2 1.8,0.4 0.3,0.1 0.5,0.2 0.7,0.4 0.2,0.2 0.5,0.3 0.6,0.5 0.7,0.7 1.2,1.8 1.2,3.1 0.1,1.7 -0.1,3.4 -0.3,5.2 -0.1,0.8 -0.2,1.7 -0.3,2.5 0,0.6 0.3,1.1 0.9,1.2 0.1,0 1.4,0.3 3.9,0 2,-0.2 4.9,-0.9 8.8,-2.5 0.7,-0.3 1.4,-0.6 2.2,-1 0.7,-0.3 1.4,-0.7 2.1,-1.1 0.2,-0.1 0.5,-0.3 0.8,-0.4 0.1,-0.1 0.3,-0.2 0.3,-0.3 4,-5 11.2,-8.6 19.7,-9.7 h 0.2 c 0.2,0 0.5,0 0.7,-0.1 0.2,0 0.5,-0.1 0.6,-0.2 0.2,-0.1 0.3,-0.3 0.4,-0.5 0.4,-1.3 0.8,-2.5 1.2,-3.8 1.3,0.4 4.1,1.8 6.2,2.9 1.8,1 3.7,2 5.4,2.8 -1,3.2 -2.1,6.7 -3.1,10.2 -1.1,3.6 -2.2,7.2 -3.2,10.5 -0.2,0.7 -0.4,1.4 -0.7,2.1 l -0.2,0.7 c -0.3,0.9 -0.5,1.8 -0.8,2.7 -0.2,0.8 -0.5,1.6 -0.7,2.4 -0.2,0.8 -0.5,1.6 -0.7,2.5 -0.4,1.6 -0.2,2.8 0.4,3.5 0.4,0.4 1.1,0.9 2.3,0.8 0.5,-0.1 1.1,-0.2 1.7,-0.5 6.7,-3.1 13.5,-10.2 16.1,-16.8 0,0 0,0 0,-0.1 v -0.1 c 0.6,-2 1.3,-4.1 1.9,-6.2 1,-3.3 2.5,-8 4,-12.7 0.6,-1.9 2.8,-3.1 5.2,-3.9 0.6,-0.2 1.2,-0.4 1.9,-0.5 0.5,-0.1 0.9,-0.2 1.4,-0.3 0.5,-0.1 0.9,-0.1 1.3,-0.2 0,0 0,0 0.1,0 v 0 c 0.3,0 0.5,-0.1 0.8,-0.1 0.5,-0.1 1,-0.1 1.4,-0.2 l 0.7,-0.1 c 0.6,-0.1 1.3,-0.1 1.9,0 0.3,0 0.6,0.1 0.8,0.2 0.4,1 0.5,2.4 0.5,3.9 z m -278.5,65.4 c -0.3,-0.1 -0.7,0 -1,0.2 -0.4,0.4 -0.9,0.7 -1.3,1.1 -0.9,0.8 -1.8,1.5 -2.7,2.2 -6.5,4.9 -12.3,7.8 -18.3,9.1 -2.5,0.5 -4.6,0.2 -6.6,-0.9 -2.9,-1.6 -4,-4.4 -3.1,-7.5 2,-6.4 4,-12.8 6,-19.1 1,-3.1 1.9,-6.1 2.9,-9.2 0.2,-0.7 0.4,-1.4 0.6,-2.2 l 0.4,-1.3 c 0.1,-0.4 0,-0.7 -0.2,-1 -0.2,-0.3 -0.6,-0.4 -1,-0.4 -1.1,0.1 -2.2,0.3 -3.4,0.4 -0.5,0.1 -1.1,0.1 -1.6,0.2 -0.5,0 -1.1,0.1 -1.6,0.2 -0.2,0 -0.5,0.1 -0.7,0.1 -1.7,0.2 -3.8,0.5 -5.9,0.8 -0.3,0 -0.5,0.2 -0.8,0.3 l -0.2,0.2 c -0.9,0.8 -1.3,2.1 -1.4,2.3 -3.1,9.7 -6.2,19.6 -9.2,29.2 l -2.8,8.9 c -0.2,0.6 -0.4,1.2 -0.6,1.8 l -0.1,0.3 -17.3,2 c 0.1,-0.3 0.1,-0.5 0.2,-0.8 5.5,-17.8 11,-35.6 16.6,-53.4 l 5.9,-19 0.2,-0.5 c 0.2,-0.5 0.3,-0.9 0.4,-1.3 0.5,-1.8 0.3,-3.1 -0.4,-4 -0.7,-0.9 -2,-1.4 -3.9,-1.3 -0.4,0 -0.8,0.1 -1.2,0.1 -0.2,0 -0.3,0.1 -0.5,0.1 -0.3,0 -0.7,0.1 -1,0 -1.4,-0.5 -2.2,-1 -2.3,-1.2 -0.2,-0.9 0.1,-2.4 0.6,-3.1 0.6,-0.8 2,-1.4 3.2,-1.6 0.9,-0.1 1.9,-0.2 2.8,-0.3 4.5,-0.5 9.2,-1 13.7,-0.8 3,0.1 5,1 6.1,2.5 1.1,1.5 1.2,3.9 0.4,6.9 -1.6,5.5 -3.3,11.1 -5,16.5 -0.8,2.5 -1.6,5 -2.3,7.5 -0.2,0.6 -0.3,1.1 -0.5,1.8 -0.1,0.3 -0.2,0.7 -0.3,1.1 -0.1,0.3 0,0.7 0.2,1 0.2,0.3 0.6,0.4 1,0.4 1.1,-0.1 2.2,-0.3 3.2,-0.4 1.1,-0.1 2.1,-0.2 3.1,-0.4 1.9,-0.2 4.4,-0.5 6.9,-0.9 1.2,-0.2 2,-1.8 2.3,-2.6 4.2,-13.3 7.8,-24.5 11.3,-35.8 0.4,-1.3 0.8,-1.6 2,-1.8 h 0.1 c 2.1,-0.2 4.3,-0.4 7.1,-0.8 1.5,-0.2 3,-0.4 4.6,-0.6 0.1,0 0.2,0 0.3,0 0.9,-0.1 1.9,-0.2 2.9,-0.3 l -0.4,1.4 c -0.5,1.6 -1,3.2 -1.5,4.8 -0.2,0.5 -0.3,1 -0.5,1.5 l -5.1,16.2 c -5.2,16.3 -10.3,32.7 -15.4,49 l -0.1,0.3 c -0.3,0.8 -0.7,2.1 0.2,3.1 0.3,0.4 1,0.8 2,0.6 0.4,-0.1 0.9,-0.2 1.4,-0.4 7.8,-3.1 12.7,-7.8 15,-14.3 1.4,-3.9 2.8,-7.6 4.4,-11 1.4,-3 3,-5.8 4.9,-8.5 2.1,-2.9 4.6,-5 7.6,-6.4 0.2,-0.1 0.4,-0.2 0.7,-0.3 1.9,-0.8 4,-1.3 6.3,-1.4 0.2,0 0.4,0 0.5,0 0.3,0 0.6,0 0.9,0 2.1,0 3.8,0.4 5.2,1.4 0.1,0.1 0.2,0.1 0.3,0.2 0.5,0.4 1,0.9 1.5,1.5 0.3,0.3 0.7,0.5 1.2,0.4 0.4,-0.1 0.7,-0.5 0.8,-0.9 0.1,-0.8 0.3,-1.2 0.6,-1.5 0.3,-0.2 0.6,-0.3 1,-0.4 0.1,0 0.3,0 0.5,-0.1 0.2,0 0.3,0 0.5,0 0.2,0 0.3,0 0.5,0 0,0 0.1,0 0.1,0 1.1,-0.1 2.3,-0.2 3.7,-0.4 1,-0.1 2.1,-0.3 3.1,-0.4 0.6,-0.1 1.1,-0.1 1.7,-0.2 l -0.2,0.8 c -0.5,1.6 -0.9,3.1 -1.4,4.5 -0.7,2.1 -1.3,4.3 -2,6.4 -1.8,5.9 -3.8,12 -5.6,18.1 0,0.2 -0.1,0.3 -0.2,0.5 -0.5,1.4 -1.2,3.6 0.3,5 0.6,0.6 1.5,0.8 2.5,0.7 1.2,-0.1 2.5,-0.8 3.4,-1.2 5,-2.6 9.1,-6.5 12.5,-12.1 0.8,0.7 1.5,1.4 2.1,2.2 0.1,0.1 0.1,0.6 0.1,0.8 -0.3,0.5 -0.7,1.1 -1,1.6 -1.3,2.1 -2.7,4.3 -4.4,6 -6.9,7.3 -14.8,12 -23.5,14.2 -0.6,0.1 -1.1,0.2 -1.6,0.3 -1.9,0.2 -3,-0.2 -4.6,-3.1 -0.2,-0.3 -0.5,-0.5 -0.8,-0.6 -0.1,0 -0.2,0 -0.3,0 -0.3,0 -0.5,0.1 -0.7,0.3 -2.8,3 -6.4,4.7 -11.5,5.4 -0.2,0 -0.4,0 -0.6,0.1 -6.3,0.7 -9.1,-1.2 -11.3,-7.8 0,-0.6 -0.2,-0.9 -0.6,-1 z"
       id="path4"
       inkscape:connector-curvature="0"
       style="fill:#ffffff" /><path
       class="st0"
       d="m 521,291 c -0.3,-2.6 -1.5,-5.1 -3.2,-7 -0.8,-1 -1.8,-1.9 -2.7,-2.7 -0.8,-0.8 -1.8,-1.6 -2.8,-2.1 0.5,-2.9 0.5,-5.8 0.3,-8.7 -0.3,-3 -1.1,-6.1 -2.8,-8.7 -1.7,-2.6 -4.2,-4.7 -7.2,-5.7 -2.9,-1.1 -6.1,-1.1 -9,-1.2 -3,0 -6,0.1 -9,0.4 -3,0.3 -6,0.7 -9,1.5 -5.4,1.5 -10.5,4.3 -14.6,8.2 -0.8,-1.4 -1.9,-2.6 -3.2,-3.5 -0.9,-0.6 -1.9,-1 -2.7,-1.4 l -2.6,-1.1 -10.4,-4.6 c -0.8,-0.4 -1.9,-0.8 -2.9,-1 -1.1,-0.2 -2.2,-0.3 -3.2,-0.2 -2,0.1 -4.3,0.9 -6,2.2 -1.8,1.3 -3.1,3.2 -3.8,5.3 l -1.1,3.6 c -1.1,-0.5 -2.2,-0.9 -3.3,-1.1 -17.9,-46.6 -60,-82.2 -112.9,-89.6 -64.5,-8.9 -124.9,27 -149.6,84 -1.9,-1.4 -4.1,-2.3 -6.5,-2.6 -0.6,-0.1 -1.2,-0.1 -1.8,-0.1 -0.6,0 -1.3,0.1 -1.6,0.2 l -2.6,0.3 c -3.5,0.4 -7,0.9 -10.5,1.2 l -2.6,0.3 c -1,0.1 -2.2,0.3 -3.2,0.6 -2.1,0.6 -4.2,1.6 -6,3.1 -1.7,1.4 -3.1,3.3 -4,5.2 -1.2,-0.9 -2.4,-1.7 -3.7,-2.3 -3.2,-1.5 -6.8,-2.2 -10,-2.3 -6.4,-0.2 -12.5,0.6 -18.4,1.2 -3.6,0.5 -7,1.9 -9.9,4.2 -1.4,1.1 -2.7,2.6 -3.7,4.2 -1,1.6 -1.6,3.3 -2.1,5.1 -0.8,3.5 -0.7,7.3 1,11 0.9,1.8 2.1,3.3 3.5,4.5 0.7,0.6 1.4,1.1 2.1,1.5 l -12.3,40.3 -6.6,21.4 -0.8,2.7 -0.8,2.8 c -0.7,2.2 -0.7,4.9 0.1,7.2 0.7,2.3 2.2,4.4 4.1,6 0.1,0.1 0.1,0.1 0.2,0.1 l -0.7,0.5 c -0.5,0.3 -1,0.7 -1.4,1.1 -0.9,0.8 -1.6,1.7 -2.3,2.6 -1.2,2 -1.9,4.3 -1.9,6.6 0,2.3 0.7,4.7 2,6.6 0.3,0.5 0.7,1 1,1.4 l 1,1.1 c 0.6,0.6 1.1,1.2 1.7,1.9 1.1,1.3 2.2,2.7 3.3,4 2.1,2.8 4,5.7 5.6,8.7 1.6,3 2.8,6.2 3,9 0.1,0.7 0,1.4 -0.1,2 -0.2,1.1 -0.3,2.3 -0.1,3.4 0.2,2.3 1.1,4.5 2.5,6.3 2.8,3.7 7.8,5.5 12.3,4.4 2.2,-0.5 4.3,-1.7 5.9,-3.3 1.2,-1.2 2.5,-2.4 3.8,-3.6 10.5,-9.4 22.4,-17.3 35,-23.7 11.3,-5.7 23.3,-10.2 35.6,-13.3 21.5,34.3 57.5,59.3 100.8,65.3 66,9.1 127.7,-28.7 151.2,-88 l 3.1,-0.4 24,-2.9 12,-1.5 6,-0.7 c 2,-0.2 4.1,-0.5 6,-1.2 3.9,-1.2 7.5,-3.4 10.6,-5.9 3.2,-2.6 5.9,-5.6 8.1,-9.1 2.1,-3.4 3.8,-7.3 4.1,-11.5 0.2,-2 -0.1,-4.2 -0.7,-6.1 -0.6,-1.7 -1.6,-3.4 -2.9,-4.7 3.4,-1.3 6.6,-3 9.6,-4.9 3.2,-2.1 6.2,-4.5 9,-7.1 2.8,-2.6 5.3,-5.6 7.6,-8.6 1.2,-1.5 2.2,-3.2 2.9,-5 0.2,-1.9 0.4,-3.9 0.2,-5.8 z M 229.2,246.5 c -0.1,0 -0.1,0.1 -0.2,0.1 v 0 c 0,0 0.1,-0.1 0.2,-0.1 1.4,-1.3 2.8,-2.5 4.2,-3.7 l 4.5,-3.3 4.7,-3 c 1.6,-0.9 3.2,-1.8 4.8,-2.7 1.7,-0.8 3.3,-1.6 4.9,-2.3 1.7,-0.7 3.3,-1.3 4.9,-2 1.7,-0.6 3.3,-1.1 4.9,-1.6 1.6,-0.4 3.2,-0.9 4.8,-1.3 3.1,-0.7 6.1,-1.3 8.9,-1.7 2.8,-0.5 5.3,-0.5 7.6,-0.7 2.3,0 4.2,0 5.9,-0.1 3.2,0.2 5.1,0.2 5.1,0.2 0,0 -1.9,0 -5.1,0 -1.6,0.1 -3.6,0.2 -5.8,0.3 -2.2,0.3 -4.8,0.5 -7.5,1 -2.7,0.4 -5.7,1.1 -8.7,1.8 -1.5,0.4 -3.1,0.9 -4.7,1.4 -1.6,0.5 -3.2,1.1 -4.8,1.7 -1.6,0.7 -3.2,1.3 -4.8,2 -1.6,0.8 -3.2,1.6 -4.8,2.4 -1.6,0.9 -3.2,1.8 -4.8,2.7 l -4.6,3 -4.4,3.2 c -0.4,0.3 -0.8,0.7 -1.2,1 -1.6,0.5 -2.8,1.1 -4,1.7 z m -29.9,33.7 c -1.2,2.5 -1.8,4.8 -2.3,6.6 -0.2,0.8 -0.4,1.4 -0.6,2.1 0,0 0,0 0,0 0,0 -0.1,0 -0.1,0 0,0 0,0 0,0 0.2,-0.6 0.3,-1.3 0.5,-2.1 0.5,-1.9 1,-4.2 2.1,-6.7 0.5,-1.3 1,-2.6 1.5,-4.1 0.5,-1.4 1.1,-3 1.9,-4.4 0.8,-1.5 1.6,-3 2.4,-4.6 0.8,-1.6 1.7,-3.3 2.8,-4.8 2.2,-3.1 4.2,-6.7 7,-9.9 0.7,-0.8 1.3,-1.6 2,-2.4 0.7,-0.8 1.5,-1.6 2.2,-2.4 0.7,-0.8 1.5,-1.6 2.2,-2.4 l 2.4,-2.2 2.4,-2.3 2.6,-2.1 c 1.7,-1.5 3.5,-2.8 5.4,-4 1.8,-1.3 3.7,-2.5 5.6,-3.6 1.9,-1.2 3.9,-2.2 5.8,-3.2 3.9,-2 8,-3.7 11.9,-5 4,-1.4 7.9,-2.4 11.7,-3.2 1.9,-0.5 3.7,-0.7 5.5,-0.9 0.9,-0.1 1.8,-0.3 2.6,-0.4 0.9,-0.1 1.7,-0.1 2.6,-0.2 3.3,-0.4 6.4,-0.3 9.1,-0.4 2.7,0.1 5.1,0.2 7,0.3 3.9,0.5 6.1,0.7 6.1,0.7 0,0 -2.2,-0.2 -6.1,-0.5 -1.9,0 -4.3,-0.1 -7,-0.1 -2.7,0.1 -5.8,0.2 -9.1,0.6 -0.8,0.1 -1.7,0.2 -2.5,0.3 -0.9,0.1 -1.7,0.3 -2.6,0.4 -1.8,0.3 -3.6,0.6 -5.4,1.1 -3.7,0.8 -7.6,1.9 -11.5,3.3 -3.9,1.4 -7.9,3 -11.7,5 -1.9,1 -3.9,2 -5.7,3.2 -1.9,1.1 -3.8,2.3 -5.6,3.6 -1.8,1.2 -3.6,2.5 -5.3,4 l -2.6,2.1 -2.4,2.2 -2.4,2.2 c -0.7,0.8 -1.5,1.6 -2.2,2.3 -0.7,0.8 -1.5,1.5 -2.2,2.3 -0.7,0.8 -1.4,1.6 -2,2.4 -0.7,0.8 -1.3,1.6 -2,2.4 -0.6,0.8 -1.2,1.6 -1.7,2.5 -1.1,1.6 -2.3,3.2 -3.4,4.8 -1.2,1.5 -2,3.2 -2.9,4.7 -0.9,1.6 -1.7,3.1 -2.5,4.6 -0.9,1.4 -1.4,2.9 -2,4.3 -0.4,1.3 -1,2.6 -1.5,3.9 z m -10,8.5 c 0.5,-1.9 1,-4.1 1.8,-6.5 0.9,-3.1 2.1,-6.4 3.7,-10 1.6,-3.6 3.4,-7.4 5.7,-11.2 2.3,-3.8 4.9,-7.8 8,-11.6 3,-3.8 6.5,-7.6 10.2,-11.1 3.7,-3.5 7.8,-6.8 12.1,-9.8 2.2,-1.5 4.3,-2.9 6.6,-4.1 l 3.4,-1.9 3.5,-1.7 c 1.2,-0.5 2.3,-1.1 3.5,-1.6 1.2,-0.5 2.4,-0.9 3.5,-1.4 2.3,-1 4.7,-1.7 7,-2.5 2.3,-0.8 4.7,-1.3 7,-1.9 2.3,-0.6 4.6,-0.9 6.8,-1.3 2.2,-0.4 4.4,-0.6 6.5,-0.8 2.1,-0.2 4.1,-0.4 6.1,-0.4 2,0 3.8,-0.2 5.6,-0.1 1.8,0.1 3.5,0.2 5,0.2 3.2,0.2 5.9,0.7 8.2,0.9 3.2,0.6 5.4,1 6.4,1.2 -1,-0.2 -3.2,-0.5 -6.4,-1 -2.3,-0.2 -5,-0.5 -8.1,-0.6 -3.2,-0.1 -6.7,-0.2 -10.6,0.1 -1.9,0 -4,0.2 -6,0.5 -2.1,0.2 -4.2,0.5 -6.4,0.9 -2.2,0.4 -4.4,0.8 -6.7,1.4 -2.2,0.6 -4.6,1.1 -6.9,1.9 -2.3,0.7 -4.6,1.5 -6.9,2.5 -1.1,0.5 -2.3,0.9 -3.5,1.4 -1.2,0.5 -2.3,1.1 -3.4,1.6 l -3.4,1.7 -3.3,1.9 c -2.3,1.2 -4.4,2.7 -6.5,4.1 -4.3,2.9 -8.3,6.1 -12,9.6 -3.7,3.5 -7.1,7.1 -10.2,10.9 -3.1,3.7 -5.7,7.6 -8,11.4 -2.3,3.8 -4.2,7.5 -5.9,11.1 -1.5,3.6 -2.9,6.8 -3.9,9.8 -0.9,2.3 -1.4,4.5 -1.9,6.3 z m -4.8,-6.1 c -0.6,2 -1.1,3.9 -1.6,5.6 -0.1,0.4 -0.2,0.8 -0.3,1.2 0,0 -0.1,0 -0.1,0 -0.1,0 -0.2,0 -0.4,0 0.1,-0.5 0.2,-0.9 0.3,-1.4 0.4,-1.8 0.9,-3.7 1.4,-5.7 0.6,-2 1.3,-4 2,-6.2 1.6,-4.3 3.4,-8.8 5.9,-13.4 2.4,-4.6 5.2,-9.4 8.6,-13.9 3.4,-4.6 7.1,-9 11.4,-13.3 2,-2.2 4.4,-4 6.7,-6.1 2.3,-2 4.8,-3.7 7.2,-5.6 2.5,-1.7 5.1,-3.3 7.7,-4.9 2.7,-1.4 5.3,-3 8,-4.2 5.4,-2.5 10.9,-4.7 16.4,-6.3 2.7,-0.8 5.4,-1.6 8.1,-2 2.7,-0.6 5.3,-1.1 7.9,-1.4 2.6,-0.3 5.1,-0.7 7.6,-0.8 2.5,-0.1 4.8,-0.4 7.1,-0.2 2.3,0 4.5,0 6.5,0.1 2.1,0.2 4,0.4 5.9,0.6 3.7,0.4 6.8,1.1 9.4,1.5 3.9,1 6.5,1.6 7.6,1.9 -1.1,-0.2 -3.7,-0.8 -7.6,-1.7 -2.6,-0.3 -5.8,-0.9 -9.4,-1.2 -1.8,-0.1 -3.8,-0.3 -5.8,-0.4 -2.1,-0.1 -4.2,0 -6.5,0 -2.3,-0.1 -4.6,0.2 -7,0.3 -2.4,0.1 -4.9,0.5 -7.5,0.9 -2.6,0.3 -5.2,0.9 -7.8,1.5 -2.7,0.5 -5.3,1.3 -8,2.1 -5.4,1.6 -10.8,3.7 -16.2,6.3 -2.7,1.2 -5.2,2.8 -7.9,4.2 -2.5,1.6 -5,3.2 -7.5,4.9 -2.4,1.9 -4.8,3.6 -7.1,5.5 -2.2,2 -4.6,3.9 -6.6,6 -4.2,4.1 -8,8.6 -11.3,13.1 -3.3,4.5 -6.3,9.1 -8.7,13.7 -2.5,4.5 -4.4,9.1 -6,13.3 -1,2 -1.7,4.1 -2.4,6 z m -9.2,7 c 0,-0.1 0,-0.1 0,-0.2 0.4,-2.4 1.2,-4.8 1.8,-7.3 0.4,-1.3 0.7,-2.6 1.1,-3.9 0.5,-1.3 0.9,-2.6 1.4,-3.9 1,-2.7 1.9,-5.5 3.3,-8.2 2.4,-5.6 5.5,-11.1 9.1,-16.7 3.7,-5.5 7.8,-10.9 12.6,-15.9 2.4,-2.5 4.8,-5.1 7.5,-7.3 l 4,-3.5 4.2,-3.2 c 5.6,-4.2 11.8,-7.7 18,-10.8 3.1,-1.5 6.3,-2.7 9.5,-4.1 3.2,-1 6.4,-2.2 9.6,-3.1 3.2,-0.7 6.3,-1.7 9.5,-2.2 3.1,-0.5 6.2,-1.2 9.2,-1.4 6,-0.7 11.7,-0.8 17,-0.6 2.6,0.2 5.1,0.3 7.5,0.5 2.4,0.3 4.6,0.7 6.7,1 2.1,0.3 4.1,0.7 5.9,1.2 1.8,0.4 3.5,0.8 4.9,1.1 2.9,0.9 5.2,1.6 6.8,2.1 1,0.3 1.7,0.5 2,0.7 -0.4,-0.1 -1.1,-0.3 -2.1,-0.6 -1.6,-0.4 -3.9,-1.2 -6.8,-1.9 -1.5,-0.3 -3.2,-0.7 -5,-1 -1.8,-0.4 -3.7,-0.8 -5.9,-1 -2.1,-0.3 -4.4,-0.6 -6.7,-0.8 -2.4,-0.1 -4.9,-0.3 -7.5,-0.4 -5.2,-0.1 -10.9,0.1 -16.9,0.8 -3,0.2 -6,1 -9.1,1.4 -3.1,0.5 -6.2,1.5 -9.4,2.2 -3.1,0.9 -6.3,2.1 -9.5,3.1 -3.1,1.4 -6.3,2.6 -9.3,4.1 -6.1,3.1 -12.2,6.6 -17.8,10.8 l -4.2,3.1 -3.9,3.4 c -2.7,2.2 -5.1,4.7 -7.5,7.1 -4.8,4.9 -9,10.3 -12.6,15.7 -3.6,5.4 -6.7,11 -9.2,16.5 -1.4,2.7 -2.3,5.4 -3.3,8.1 -0.5,1.3 -1,2.6 -1.4,3.9 -0.4,1.3 -0.7,2.6 -1.1,3.9 -0.6,2.5 -1.5,4.9 -1.9,7.3 0,0 0,0.1 0,0.1 -0.1,0 -0.3,-0.1 -0.5,-0.1 z m 41,-26.9 c -0.9,1.3 -1.8,2.5 -2.7,3.8 -0.8,1.3 -1.5,2.5 -2.2,3.7 -1.5,2.3 -2.6,4.6 -3.5,6.7 -0.5,1 -1,2 -1.4,2.8 -0.4,0.9 -0.7,1.7 -1,2.5 -1.2,3 -1.8,4.7 -1.8,4.7 0,0 0.6,-1.8 1.6,-4.8 0.3,-0.8 0.6,-1.6 0.9,-2.5 0.4,-0.9 0.8,-1.9 1.3,-2.9 0.9,-2.1 1.9,-4.4 3.3,-6.8 0.7,-1.2 1.4,-2.5 2.1,-3.8 0.8,-1.3 1.7,-2.5 2.6,-3.9 1.7,-2.6 3.7,-5.2 5.9,-7.7 0,0 0,0 0,0 -0.6,1 -1,2.1 -1.3,3.3 v 0 c 0,0 0,0 0,0 -1.4,1.6 -2.7,3.2 -3.8,4.9 z m 29.2,-20 c 0,0 -0.1,0 -0.1,0 0.2,-0.1 0.3,-0.2 0.5,-0.3 1.3,-0.7 2.5,-1.4 3.8,-2.2 0.6,-0.3 1.2,-0.7 1.9,-1 l 2,-0.9 c 1.3,-0.6 2.6,-1.1 3.8,-1.7 2.5,-1.2 5.1,-1.8 7.5,-2.6 1.2,-0.4 2.4,-0.7 3.5,-1.1 1.2,-0.2 2.3,-0.4 3.4,-0.6 2.2,-0.4 4.1,-0.8 5.9,-1 1.8,-0.1 3.3,-0.2 4.6,-0.3 2.5,-0.2 4,-0.3 4,-0.3 0,0 -1.5,0.2 -4,0.5 -1.3,0.2 -2.8,0.3 -4.5,0.5 -1.7,0.3 -3.7,0.8 -5.8,1.2 -1.1,0.2 -2.2,0.5 -3.3,0.7 -1.1,0.4 -2.3,0.8 -3.4,1.1 -2.3,0.8 -4.9,1.5 -7.3,2.7 -1.2,0.6 -2.5,1.1 -3.8,1.7 l -1.9,0.8 c -0.6,0.3 -1.2,0.7 -1.8,1.1 -0.8,0.5 -1.6,0.9 -2.3,1.4 v 0 c -1.1,0.3 -1.9,0.3 -2.7,0.3 z m 14.2,1.3 c -0.6,-0.1 -1.2,-0.3 -1.9,-0.4 1.1,-0.5 2.3,-0.9 3.4,-1.3 1.7,-0.8 3.5,-1.2 5.1,-1.6 1.6,-0.5 3.1,-0.9 4.4,-1.2 1.3,-0.2 2.5,-0.4 3.4,-0.6 1.7,-0.3 2.7,-0.5 2.9,-0.5 -0.2,0 -1.3,0.3 -2.9,0.7 -0.7,0.2 -1.5,0.4 -2.4,0.6 -4.1,0.9 -8.2,2.3 -12,4.3 z m 76.7,-43.3 c -1.8,-0.6 -4.4,-1.7 -7.7,-2.9 -1.7,-0.5 -3.6,-1.1 -5.6,-1.6 -1,-0.3 -2.1,-0.6 -3.2,-0.9 -1.1,-0.3 -2.3,-0.5 -3.5,-0.7 -2.4,-0.5 -5,-1.1 -7.7,-1.5 -2.8,-0.3 -5.6,-0.7 -8.7,-1.1 -3,-0.2 -6.2,-0.3 -9.5,-0.4 -3.3,0 -6.6,0.2 -10.1,0.3 -3.5,0.3 -7,0.8 -10.6,1.2 -3.6,0.8 -7.2,1.4 -10.9,2.3 -7.3,2 -14.8,4.5 -21.9,8 -1.8,0.9 -3.6,1.7 -5.4,2.6 l -5.2,3.1 c -3.5,1.9 -6.7,4.4 -10,6.7 -1.7,1.1 -3.2,2.4 -4.8,3.7 l -4.6,3.9 c -2.9,2.8 -5.7,5.6 -8.5,8.5 -1.3,1.5 -2.6,3 -3.8,4.6 -1.3,1.5 -2.6,2.9 -3.6,4.6 -2.2,3.2 -4.5,6.3 -6.5,9.5 -1.8,3.3 -3.6,6.6 -5.4,9.7 -1.4,3.4 -2.9,6.6 -4.2,9.8 -2.3,6.5 -4.4,12.8 -5.5,18.8 0,0 0,0.1 0,0.1 -0.2,0 -0.5,0 -0.7,0 0,-0.1 0,-0.2 0.1,-0.3 1,-6 3.1,-12.3 5.4,-18.9 1.4,-3.2 2.8,-6.5 4.2,-9.9 1.8,-3.2 3.5,-6.5 5.4,-9.9 2,-3.3 4.3,-6.4 6.5,-9.7 1.1,-1.7 2.4,-3.2 3.7,-4.7 1.3,-1.5 2.5,-3.1 3.8,-4.6 2.7,-2.9 5.6,-5.8 8.5,-8.6 l 4.6,-4 c 1.6,-1.3 3.1,-2.7 4.8,-3.8 3.3,-2.3 6.6,-4.8 10.2,-6.7 l 5.3,-3.1 c 1.8,-0.9 3.6,-1.7 5.4,-2.6 7.2,-3.5 14.8,-5.9 22.1,-7.9 3.7,-0.9 7.4,-1.5 11,-2.3 3.6,-0.4 7.2,-0.9 10.7,-1.2 3.5,-0.1 6.9,-0.3 10.2,-0.3 3.3,0.2 6.5,0.3 9.5,0.5 3,0.4 5.9,0.8 8.7,1.1 2.8,0.4 5.3,1.1 7.7,1.6 1.2,0.3 2.4,0.5 3.5,0.8 1.1,0.3 2.2,0.7 3.2,1 2,0.6 3.9,1.2 5.6,1.8 3.2,1.5 5.7,2.7 7.5,3.4 1.2,0.4 2,0.8 2.4,0.9 -0.5,-0.1 -1.3,-0.4 -2.4,-0.9 z m -161,50.5 c 4.2,-7.5 9.1,-15.1 15.2,-21.9 5.7,-7 12.7,-13.3 19.9,-19 1.8,-1.4 3.8,-2.6 5.7,-3.9 2,-1.2 3.7,-2.7 5.8,-3.8 4,-2.2 7.9,-4.7 12.1,-6.4 2.1,-0.9 4.1,-1.9 6.2,-2.8 2.1,-0.8 4.2,-1.5 6.3,-2.2 4.2,-1.6 8.5,-2.6 12.7,-3.7 1.1,-0.2 2.1,-0.6 3.1,-0.8 1.1,-0.2 2.1,-0.3 3.2,-0.5 2.1,-0.3 4.2,-0.7 6.2,-1 4.1,-0.5 8.2,-0.7 12.1,-1.1 4,0 7.8,0 11.5,0.1 3.7,0.3 7.3,0.7 10.7,1 3.4,0.6 6.7,1.2 9.8,1.8 3.1,0.5 5.9,1.6 8.7,2.3 1.3,0.4 2.6,0.8 3.9,1.1 1.2,0.5 2.4,0.9 3.5,1.3 2.3,0.9 4.3,1.7 6.2,2.4 3.7,1.6 6.5,3.1 8.4,4 1,0.5 1.7,0.8 2.2,1.1 0.3,0.1 0.5,0.2 0.6,0.3 -0.1,-0.1 -0.3,-0.2 -0.6,-0.3 -0.5,-0.2 -1.3,-0.6 -2.2,-1 -2,-0.9 -4.8,-2.3 -8.5,-3.8 -1.9,-0.7 -4,-1.4 -6.3,-2.3 -1.1,-0.4 -2.3,-0.8 -3.6,-1.3 -1.3,-0.3 -2.6,-0.7 -3.9,-1 -2.7,-0.6 -5.6,-1.6 -8.6,-2.1 -3.1,-0.5 -6.3,-1.1 -9.7,-1.7 -3.4,-0.3 -7,-0.6 -10.7,-0.9 H 284 c -3.9,0.4 -8,0.6 -12,1.1 -2,0.3 -4.1,0.7 -6.2,1.1 -1,0.2 -2.1,0.4 -3.1,0.5 -1,0.2 -2.1,0.5 -3.1,0.8 -4.2,1.1 -8.4,2.1 -12.5,3.7 -2.1,0.8 -4.2,1.5 -6.3,2.3 -2,0.9 -4.1,1.9 -6.1,2.8 -4.2,1.7 -8,4.2 -12,6.4 -2,1 -3.8,2.5 -5.7,3.8 -1.9,1.3 -3.8,2.6 -5.6,3.9 -7.2,5.7 -14,11.7 -19.8,18.7 -6.1,6.7 -11,14.1 -15.2,21.6 -4.2,7.5 -7.4,15.2 -9.9,22.7 -1.8,5.4 -3.1,10.7 -4,15.8 -0.3,0.1 -0.5,0.1 -0.8,0.2 0.9,-5.2 2.2,-10.7 4,-16.2 2.3,-7.7 5.5,-15.5 9.7,-23.1 z m 164.5,119.6 c 0.1,0.1 0.3,0.3 0.5,0.4 v 0 c -1.6,1.5 -3.4,2.7 -5,4 -1.6,1.4 -3.4,2.3 -5,3.3 -1.6,0.9 -3.1,2 -4.6,2.7 -1.5,0.7 -2.9,1.4 -4.1,2 -1.2,0.5 -2.3,0.9 -3.2,1.2 -1.6,0.6 -2.6,1 -2.8,1.1 0.2,-0.1 1.2,-0.5 2.7,-1.2 0.9,-0.4 1.9,-0.9 3.1,-1.5 1.2,-0.6 2.5,-1.4 3.9,-2.2 1.5,-0.7 2.9,-1.8 4.5,-2.8 1.6,-1.1 3.3,-2.1 4.8,-3.4 1.5,-1.3 3.3,-2.5 4.8,-4 0.2,0.2 0.3,0.3 0.4,0.4 z m 16.3,3.5 -0.4,0.5 -3.9,4 c -1.4,1.2 -2.8,2.5 -4.1,3.7 -1.4,1.1 -2.9,2.3 -4.3,3.4 -1.5,1 -2.9,2 -4.4,3.1 -2.9,1.9 -5.8,3.6 -8.7,4.9 -1.4,0.7 -2.8,1.4 -4.2,2 -1.4,0.6 -2.8,1.1 -4.1,1.6 -2.6,1.1 -5,1.8 -7.2,2.4 -1.1,0.3 -2.1,0.6 -3.1,0.9 -1,0.2 -1.8,0.3 -2.6,0.5 -2.6,0.5 -4.3,0.8 -4.8,0.9 0.5,-0.1 2.2,-0.5 4.8,-1.1 0.8,-0.2 1.7,-0.4 2.6,-0.6 0.9,-0.3 1.9,-0.6 3,-1 2.2,-0.7 4.6,-1.4 7.1,-2.6 1.3,-0.5 2.6,-1.1 4,-1.7 1.4,-0.6 2.7,-1.4 4.1,-2.1 2.8,-1.4 5.7,-3.2 8.6,-5.1 1.4,-1 2.8,-2 4.3,-3 1.4,-1.1 2.8,-2.2 4.2,-3.4 1.3,-1.2 2.7,-2.5 4,-3.7 l 3.2,-3.3 z m 33.9,-4.1 1.3,-0.2 c -1.7,2.8 -3.3,5.7 -5.1,8.5 -3.9,5.7 -8.2,11.4 -13.1,16.4 l -3.7,3.8 -4,3.5 c -2.6,2.4 -5.4,4.4 -8.2,6.5 -5.6,4 -11.6,7.4 -17.5,10.3 -6,2.8 -11.9,5.1 -17.8,6.7 -2.9,1 -5.7,1.5 -8.5,2.1 -1.4,0.3 -2.8,0.6 -4.1,0.9 -1.4,0.2 -2.7,0.4 -4,0.5 -2.6,0.3 -5.1,0.8 -7.5,0.8 -2.4,0.1 -4.7,0.1 -6.8,0.2 -4.3,0 -8,-0.3 -11.1,-0.4 -4.3,-0.6 -7.3,-1 -8.7,-1.2 1.4,0.1 4.4,0.5 8.7,1 3.1,0 6.8,0.3 11,0.2 2.1,-0.1 4.4,-0.2 6.8,-0.4 2.4,-0.1 4.9,-0.6 7.5,-0.9 1.3,-0.2 2.6,-0.3 4,-0.6 1.3,-0.3 2.7,-0.6 4.1,-0.9 2.8,-0.6 5.6,-1.2 8.5,-2.2 5.8,-1.7 11.7,-4 17.6,-6.8 5.9,-2.9 11.7,-6.3 17.3,-10.4 2.7,-2.1 5.6,-4 8.1,-6.4 l 3.9,-3.4 3.6,-3.7 c 4.9,-4.9 9.2,-10.5 13.1,-16.1 1.6,-2.6 3,-5.2 4.6,-7.8 z m -9.2,4.6 c -1.6,2.5 -3.5,4.9 -5.2,7.3 -1.9,2.4 -3.9,4.6 -5.9,6.9 -2.2,2.1 -4.3,4.3 -6.5,6.3 -2.3,1.9 -4.5,4 -7,5.7 -4.8,3.6 -9.7,6.8 -14.7,9.5 -5,2.7 -10.1,4.9 -15,6.6 -4.9,1.8 -9.7,3 -14.1,4 -2.2,0.4 -4.4,0.8 -6.4,1.1 -2,0.3 -4,0.4 -5.8,0.6 -1.8,0.2 -3.5,0.3 -5.2,0.3 -1.6,0 -3,0.1 -4.4,0.1 -2.6,0 -4.7,-0.2 -6.1,-0.2 -1.4,-0.1 -2.2,-0.1 -2.2,-0.1 0,0 0.8,0 2.2,0 1.4,0 3.5,0.1 6.1,0.1 1.3,-0.1 2.8,-0.1 4.4,-0.2 1.6,-0.1 3.3,-0.2 5.1,-0.5 1.8,-0.2 3.8,-0.4 5.8,-0.8 2,-0.4 4.1,-0.8 6.4,-1.2 4.4,-1.1 9.1,-2.3 13.9,-4.2 4.8,-1.8 9.8,-4 14.8,-6.7 4.9,-2.7 9.9,-5.9 14.5,-9.4 2.4,-1.7 4.5,-3.8 6.8,-5.7 2.2,-2 4.3,-4.2 6.4,-6.3 2,-2.2 4,-4.5 5.9,-6.8 1.7,-2.4 3.7,-4.7 5.2,-7.2 0.6,-1 1.3,-2 1.9,-2.9 v 0 l 1.5,-0.2 c -0.8,1.4 -1.6,2.7 -2.4,3.9 z m -7.7,-0.5 -2.4,3.1 c -1.5,2.1 -3.2,4 -5,6 -3.5,3.9 -7.3,7.4 -11.3,10.7 -4,3.2 -8.2,6.1 -12.4,8.6 -4.2,2.6 -8.5,4.6 -12.6,6.3 -4.2,1.7 -8.2,3.1 -11.9,4.1 -3.8,1 -7.3,1.8 -10.4,2.3 -3.1,0.6 -5.9,0.8 -8.1,1 -2.3,0.2 -4,0.2 -5.3,0.3 -0.8,0 -1.3,0.1 -1.6,0.1 0.3,0 0.8,-0.1 1.6,-0.1 1.2,-0.1 3,-0.2 5.3,-0.4 2.2,-0.3 5,-0.6 8.1,-1.2 3.1,-0.5 6.5,-1.4 10.3,-2.5 3.7,-1.1 7.7,-2.5 11.8,-4.3 4.1,-1.8 8.3,-3.9 12.4,-6.4 4.2,-2.5 8.3,-5.4 12.2,-8.6 3.9,-3.2 7.7,-6.8 11.1,-10.6 1.7,-1.9 3.5,-3.8 5,-5.9 l 2.4,-3 0.9,-1.3 v 0 l 1.6,-0.2 z m -8.4,0.1 c -1.4,1.7 -2.8,3.5 -4.4,5.1 -1.5,1.7 -3.1,3.3 -4.7,4.8 l -2.4,2.3 -2.6,2.1 -2.6,2.1 c -0.9,0.6 -1.8,1.3 -2.7,1.9 -0.9,0.6 -1.8,1.2 -2.6,1.9 -0.9,0.6 -1.8,1.1 -2.7,1.7 -3.5,2.3 -7.3,3.9 -10.7,5.6 -1.7,0.9 -3.5,1.5 -5.2,2.1 -1.7,0.6 -3.3,1.2 -4.9,1.8 -1.5,0.6 -3.1,1 -4.6,1.3 -1.5,0.3 -2.9,0.7 -4.2,1 -2.6,0.7 -5,0.9 -6.9,1.1 -2.8,0.3 -4.7,0.6 -5.6,0.7 0.9,-0.1 2.8,-0.5 5.5,-0.9 1.9,-0.3 4.3,-0.6 6.9,-1.4 1.3,-0.3 2.7,-0.7 4.2,-1.1 1.5,-0.4 3,-0.7 4.6,-1.4 1.6,-0.6 3.2,-1.2 4.9,-1.8 1.7,-0.6 3.4,-1.2 5.1,-2.2 1.7,-0.9 3.4,-1.8 5.2,-2.7 0.9,-0.5 1.8,-0.9 2.7,-1.4 0.9,-0.5 1.8,-1.1 2.6,-1.6 0.9,-0.6 1.8,-1.1 2.7,-1.7 0.9,-0.6 1.7,-1.2 2.6,-1.9 0.9,-0.6 1.7,-1.2 2.6,-1.9 l 2.5,-2.1 2.5,-2.1 2.4,-2.3 c 1.6,-1.5 3.2,-3.1 4.6,-4.7 1.6,-1.6 2.9,-3.3 4.3,-5 0.1,-0.1 0.1,-0.2 0.2,-0.3 l 1.8,-0.2 c -0.4,0.4 -0.8,0.8 -1.1,1.2 z M 345,376 c -2.3,1.8 -4.5,3.6 -6.6,5.3 -2.3,1.5 -4.5,2.9 -6.6,4.2 -1,0.7 -2.2,1.3 -3.2,1.7 -1.1,0.5 -2.1,1 -3.1,1.5 -2,0.9 -3.8,1.9 -5.5,2.4 -1.7,0.5 -3.2,1 -4.4,1.4 -1.8,0.6 -3.1,1 -3.5,1.1 0.5,-0.2 1.7,-0.7 3.5,-1.3 1.2,-0.5 2.6,-1 4.3,-1.6 0.8,-0.3 1.7,-0.7 2.6,-1.2 0.9,-0.5 1.8,-0.9 2.8,-1.4 1,-0.5 2,-1 3,-1.5 1.1,-0.5 2.1,-1.1 3.1,-1.8 2.1,-1.4 4.3,-2.8 6.6,-4.3 2.1,-1.7 4.2,-3.5 6.4,-5.3 0.4,-0.3 0.7,-0.6 1.1,-1 v 0 c 0.5,0.1 0.9,0.3 1.4,0.4 -0.7,0.4 -1.3,1 -1.9,1.4 z m -76.8,58.6 c 3.5,0.5 7.8,0.9 12.7,1.4 2.5,0 5.1,0.1 7.9,0.1 1.4,0 2.8,0.1 4.3,0 1.4,-0.1 2.9,-0.2 4.4,-0.3 6.1,-0.2 12.6,-1.5 19.4,-2.8 3.3,-0.9 6.8,-1.9 10.3,-2.9 3.4,-1.3 6.9,-2.6 10.4,-4 3.5,-1.5 6.8,-3.4 10.3,-5.1 1.8,-0.8 3.4,-1.9 5.1,-3 1.7,-1.1 3.4,-2.1 5,-3.2 3.2,-2.3 6.4,-4.8 9.6,-7.2 l 4.5,-4 c 1.5,-1.4 3,-2.7 4.3,-4.2 2.8,-3 5.7,-5.8 8,-9 1.3,-1.6 2.5,-3.1 3.8,-4.7 1.1,-1.7 2.2,-3.3 3.3,-5 2.5,-3.7 4.7,-7.6 6.7,-11.4 l 1.2,-0.1 c -2,4.2 -4.3,8.3 -7,12.2 -1.1,1.7 -2.2,3.4 -3.3,5 -1.2,1.6 -2.5,3.2 -3.7,4.8 -2.4,3.3 -5.3,6.2 -8.1,9.2 -1.4,1.5 -2.9,2.9 -4.4,4.2 l -4.6,4.1 c -3.2,2.5 -6.5,5 -9.7,7.3 -1.7,1.1 -3.4,2.1 -5.1,3.1 -1.7,1 -3.3,2.2 -5.1,3 -3.5,1.7 -7,3.6 -10.5,5.1 -3.6,1.4 -7.1,2.7 -10.5,4 -3.5,1 -7,1.9 -10.4,2.8 -6.8,1.4 -13.4,2.5 -19.5,2.7 -6.1,0.7 -11.7,0 -16.6,0 -4.9,-0.6 -9.2,-1.1 -12.7,-1.7 -5.6,-1.3 -9.3,-2.1 -10.5,-2.4 1.1,0.1 4.8,0.8 10.5,2 z m 68.4,-69.5 c 0,0.2 0.1,0.3 0.2,0.5 -1,0.9 -2,1.8 -3,2.6 -1.1,0.9 -2.3,1.7 -3.4,2.4 -1.1,0.8 -2.1,1.4 -3.1,2 -2,1.1 -3.6,2.1 -4.8,2.6 -0.9,0.4 -1.6,0.7 -1.8,0.8 0.2,-0.1 0.8,-0.5 1.7,-1 1.2,-0.6 2.6,-1.8 4.6,-3 1,-0.6 2,-1.3 2.9,-2.2 1,-0.8 2.1,-1.6 3.2,-2.5 1,-0.9 2.1,-1.9 3.2,-2.9 0,0 0.1,-0.1 0.1,-0.1 0.1,0.3 0.1,0.6 0.2,0.8 z m 68.3,7.7 c -1,2 -2,4 -3.1,6 -1.2,1.9 -2.4,3.8 -3.6,5.7 -2.3,4 -5.3,7.4 -8,11.2 -1.3,1.9 -3,3.5 -4.5,5.2 -1.6,1.7 -3.1,3.5 -4.7,5.1 -6.7,6.3 -13.8,12.4 -21.6,17.1 -7.5,5.1 -15.7,8.9 -23.7,12 -8.1,3.1 -16.2,5.2 -24,6.6 -7.8,1.4 -15.3,1.8 -22.2,1.9 -6.9,0.1 -13.2,-0.7 -18.8,-1.4 -5.6,-0.9 -10.3,-2 -14.2,-3 -1.9,-0.6 -3.7,-1.1 -5.2,-1.5 -1.5,-0.5 -2.7,-0.9 -3.8,-1.3 -1,-0.4 -1.8,-0.6 -2.3,-0.8 0.5,0.2 1.3,0.4 2.3,0.8 1,0.3 2.3,0.7 3.8,1.2 1.5,0.4 3.2,0.9 5.2,1.4 3.9,1 8.7,2 14.2,2.8 5.6,0.6 11.8,1.3 18.7,1.2 6.9,-0.1 14.3,-0.5 22.1,-2 7.7,-1.4 15.8,-3.6 23.8,-6.7 8,-3.2 16,-7 23.5,-12.1 7.7,-4.8 14.6,-10.7 21.3,-17 1.6,-1.6 3.1,-3.4 4.7,-5 1.5,-1.7 3.2,-3.3 4.5,-5.2 2.7,-3.7 5.7,-7.1 8,-11 1.2,-1.9 2.4,-3.8 3.6,-5.7 1.1,-2 2.1,-3.9 3.1,-5.9 0.8,-1.3 1.4,-2.7 2.1,-4 l 1.2,-0.1 c -0.8,1.4 -1.6,2.9 -2.4,4.5 z m 111.4,-70.6 c -7.2,9.3 -15.9,15.9 -25.9,19.7 0.1,0.1 0.1,0.1 0.2,0.2 -0.1,0 -0.2,0.1 -0.2,0.1 0.1,0.1 0.1,0.1 0.2,0.2 0.1,0 0.1,0.1 0.1,0.1 0.4,0.4 0.8,0.9 1.2,1.4 1.6,2.2 2.4,4.8 2.5,7.7 v 0.2 c 0,2.6 -0.7,5.5 -2,8.4 -4.5,10.1 -15.2,18.6 -24.9,19.7 l -46.2,5.4 -13.7,1.6 -1.2,0.1 -6.6,0.8 -1.2,0.1 -6.6,0.8 v 0 l -1.2,0.1 -6.8,0.8 -1.5,0.2 -6.9,0.8 -1.6,0.2 -7.2,0.8 -1.7,0.2 -7.7,0.9 -1.9,0.2 -2.9,0.3 c -1.7,0.2 -3.3,0.2 -4.8,-0.1 -0.5,-0.1 -1,-0.2 -1.4,-0.3 -1.9,-0.5 -3.6,-1.4 -5,-2.7 -0.3,-0.3 -0.6,-0.6 -0.9,-0.9 -0.3,-0.3 -0.6,-0.6 -0.8,-1 -0.8,-1.1 -1.4,-2.4 -1.9,-3.8 -0.1,-0.4 -0.3,-0.9 -0.3,-1.4 -0.1,-0.5 -0.2,-1.1 -0.2,-1.6 0,-0.4 0,-0.7 0,-1.1 0,-0.2 0,-0.4 0,-0.6 0,-0.2 0,-0.4 0.1,-0.6 0,-0.1 0,-0.3 0,-0.4 0,0 0,0 0,0 0,-0.1 0,-0.2 0,-0.4 -14,14.8 -32,23.1 -56.2,25.9 -15.4,1.8 -33.3,1.4 -54.8,-1.2 -13,-1.6 -26,-1.6 -38.8,-0.1 -7.1,0.8 -13.8,2.1 -20.2,3.7 -21.1,5.3 -38.1,14 -49.6,21.2 -16,10 -25.1,19.4 -25.2,19.5 -1.5,1.6 -3.6,2.6 -5.7,2.9 -1.9,0.2 -3.8,-0.1 -5.4,-1 -3,-1.5 -4.9,-4.5 -5.1,-7.8 0,-0.1 0,-0.2 0,-0.4 0,0 0,0 0,0 0,0 0,0 0,0 0,0 0,0 0,0 v 0 c 0,-0.5 0,-1.1 0.2,-1.6 0.1,-0.7 0.2,-1.4 0.2,-2.2 V 417 c 0,-9.4 -10.7,-22.5 -14.7,-26.7 -1.7,-1.7 -2.7,-4.1 -2.7,-6.5 0,-0.1 0,-0.3 0,-0.4 0,-0.2 0,-0.4 0.1,-0.6 0.4,-2.9 2.2,-5.5 4.7,-6.9 0.5,-0.3 1.1,-0.6 1.6,-0.9 1,-0.6 2,-1.1 3.1,-1.7 0.2,-0.1 0.5,-0.3 0.8,-0.4 -0.2,0 -0.3,0 -0.5,-0.1 0.2,-0.1 0.3,-0.2 0.5,-0.3 -2.4,-0.2 -4.7,-1.4 -6.4,-3.3 -1.5,-1.7 -2.2,-3.8 -2.3,-6 0,-0.2 0,-0.3 0,-0.4 0,-0.6 0.2,-1.3 0.3,-1.9 0.1,-0.3 0.2,-0.6 0.2,-0.8 V 360 c 0.2,-0.6 0.3,-1.2 0.5,-1.7 l 20.8,-67 h -0.1 l 0.1,-0.3 c -4.7,-2.1 -6.5,-5.3 -7.2,-7.7 -0.2,-0.8 -0.3,-1.6 -0.4,-2.5 0,-0.3 0,-0.6 0,-0.8 v -0.2 c 0.1,-3.2 1.2,-6.4 3.2,-8.8 2.4,-2.9 6.2,-4.8 10.1,-5.3 h 0.2 c 0.9,-0.1 1.9,-0.2 2.8,-0.3 4.9,-0.5 10,-1.1 15.3,-0.8 5.9,0.3 9.7,2.3 12.2,4.6 0.7,0.6 1.3,1.3 1.7,1.9 0.1,0.1 0.2,0.2 0.3,0.4 0.2,0.3 0.4,0.6 0.6,1 0.2,-0.5 0.3,-1 0.5,-1.5 0.1,-0.4 0.3,-0.9 0.4,-1.3 0.1,-0.4 0.3,-0.9 0.5,-1.3 1.9,-4.6 5.7,-7.4 10.8,-7.9 2,-0.2 4.2,-0.4 6.9,-0.7 1.5,-0.2 3,-0.3 4.5,-0.5 h 0.3 c 1.6,-0.2 3.1,-0.4 4.7,-0.6 2.8,-0.3 5.5,0.6 7.6,2.5 0.3,0.3 0.6,0.6 0.8,0.9 1.4,1.6 2.1,3.6 2.2,5.7 v 0.2 c 0,0.2 0,0.5 0,0.7 -0.1,0.7 -0.2,1.3 -0.4,2 l -1,3.2 c -0.6,2.1 -1.3,4.2 -1.9,6.2 l -5.3,16.9 c -0.4,1.1 -0.7,2.2 -1.1,3.3 0,0 0.1,-0.1 0.1,-0.1 0,0.2 -0.1,0.3 -0.1,0.4 0.3,-0.2 0.6,-0.5 0.9,-0.7 1.3,-1.1 2.8,-2 4.3,-2.8 1.6,-0.8 3.2,-1.5 4.9,-2.1 0.2,-0.1 0.5,-0.2 0.7,-0.2 2,-0.6 4,-1 6.2,-1.1 0.2,0 0.5,0 0.7,-0.1 0.6,0 1.2,-0.1 1.8,-0.1 1.5,0 2.9,0.1 4.3,0.4 0.2,0 0.3,0.1 0.5,0.1 0.8,0.2 1.6,0.4 2.4,0.7 1.1,-0.4 2.4,-0.6 3.7,-0.7 0.1,0 0.1,0 0.2,0 0.1,0 0.2,0 0.3,0 1,-0.1 2,-0.2 3.3,-0.3 1,-0.1 2,-0.2 2.9,-0.4 v 0 h 0.1 0.3 c 1,-0.1 2,-0.3 3.1,-0.4 3.2,-0.4 6.3,0.9 8.4,3.4 1.4,1.6 2.1,3.6 2.2,5.7 v 0.3 c 0,0.8 -0.2,1.7 -0.4,2.5 l -0.7,2.4 c -0.5,1.6 -0.9,3.1 -1.4,4.6 -0.3,1 -0.6,2.1 -1,3.1 0,0 0.1,0 0.1,0 0,0.1 -0.1,0.2 -0.1,0.3 0.1,0 0.3,0 0.4,-0.1 0,0 0.1,0 0.2,0 0.8,-0.1 1.5,-0.1 2.2,0 0.5,0.1 1,0.1 1.5,0.3 1.5,0.4 2.9,1.2 4,2.4 0.3,0.3 0.5,0.5 0.8,0.8 1,0.9 2.1,2 3.2,3.5 0.2,0.3 0.5,0.6 0.6,1 1,1.7 1.6,3.6 1.6,5.6 v 0.2 c 0,0.3 0,0.5 0,0.8 -0.1,1.8 -0.7,3.6 -1.7,5.2 -0.3,0.5 -0.6,1 -0.9,1.5 -1.6,2.4 -3.3,5.1 -5.6,7.6 -1.9,2 -3.9,3.9 -5.9,5.6 0.1,0 0.3,0 0.4,0 -0.1,0.1 -0.3,0.2 -0.4,0.3 0.5,0 1.1,0 1.6,0 1.6,0 3.1,0.1 4.6,0.1 h 0.2 c 0.6,0 1.1,0 1.7,0.1 1,0 1.9,0.1 2.9,0.1 0,-0.1 -0.1,-0.2 -0.1,-0.3 h 0.1 c -0.4,-1 -0.6,-2 -0.6,-3.1 0,0 0,0 0,-0.1 v 0 c 0,0 0,0 0,0 v -0.3 c 0,-0.2 0,-0.4 0,-0.6 0,-0.1 0,-0.2 0,-0.2 0.1,-0.5 0.1,-0.9 0.3,-1.3 0.1,-0.4 0.2,-0.8 0.3,-1.2 0.2,-0.9 0.5,-1.9 0.8,-2.8 1.8,-5.7 3.6,-11.5 5.4,-17.2 3.1,-9.8 6.2,-19.6 9.2,-29.4 l 6,-19.1 h -0.1 l 0.1,-0.3 c -1.9,-0.8 -3.4,-1.9 -4.7,-3.2 -0.1,-0.2 -0.3,-0.3 -0.4,-0.5 -0.4,-0.5 -0.7,-0.9 -1.1,-1.5 -0.9,-1.5 -1.4,-3.1 -1.6,-4.8 v 0 c 0,-0.2 0,-0.3 0,-0.5 0,-0.3 0,-0.5 0,-0.8 v 0 -0.1 c 0,-1.5 0.4,-3.1 1,-4.5 1,-2.6 3.9,-7.2 11.2,-9.1 0.6,-0.2 1.2,-0.3 1.9,-0.5 0.9,-0.2 1.8,-0.4 2.9,-0.6 0.5,-0.1 1.1,-0.2 1.7,-0.2 2.8,-0.3 5.6,-0.4 8.7,-0.2 0.7,0 1.4,0.1 2.2,0.2 2.3,0.2 4.7,0.6 7.3,1.2 4.6,-2.8 9.7,-4.5 15.4,-5.1 3.8,-0.4 7.7,-0.4 11.8,0.2 5.1,0.7 9.3,2.7 12.4,5.8 0.8,0.8 1.6,1.7 2.2,2.7 0,0.1 0.1,0.1 0.1,0.2 0.6,0.9 1.1,1.8 1.5,2.8 0.6,1.4 1.1,2.9 1.4,4.4 0.1,0.5 0.1,1 0.2,1.6 0,0.3 0.1,0.6 0.1,0.9 0,0.4 0,0.8 0,1.2 v 0.2 c 0,1.9 -0.3,3.8 -0.8,5.8 -1.1,4.3 -2.9,7.9 -4.9,10.9 0.1,-0.1 0.2,-0.1 0.3,-0.2 -0.1,0.2 -0.2,0.3 -0.3,0.5 0.2,-0.1 0.5,-0.3 0.7,-0.4 1.6,-0.9 3.2,-1.6 4.9,-2.1 2.6,-0.9 5.3,-1.4 8.2,-1.5 4.5,-3.7 10.2,-5.4 16.8,-5.1 0.7,0 1.3,0.1 2,0.2 1.7,0.3 3.3,0.9 4.8,1.7 2.6,1.5 4.7,3.7 6,6.4 0,0.1 0.1,0.2 0.1,0.2 0.4,0.8 0.7,1.6 0.9,2.5 0.5,-0.2 0.9,-0.4 1.4,-0.7 0.1,-0.1 0.1,-0.1 0.2,-0.2 0.1,-0.1 0.2,-0.2 0.3,-0.3 0.2,-0.2 0.4,-0.4 0.6,-0.6 4.8,-4.7 11.4,-8.1 19,-9.9 1.2,-2.9 3.8,-5 6.8,-5.6 0.3,-0.1 0.6,-0.1 0.9,-0.1 4.2,-0.5 7.9,1.5 13,4.2 1.9,1 3.9,2.1 5.4,2.8 0.6,0.3 1.2,0.6 1.7,1 0.1,0.1 0.3,0.2 0.4,0.3 0.4,0.3 0.8,0.7 1.2,1.1 0.3,-0.5 0.5,-0.9 0.8,-1.3 0.1,-0.2 0.2,-0.3 0.3,-0.5 4.9,-6.3 14.1,-7.4 18.5,-7.9 l 0.7,-0.1 c 2.6,-0.3 4.8,-0.1 6.6,0.5 0.8,0.2 1.5,0.5 2.1,0.8 0.1,0.1 0.2,0.1 0.3,0.2 0.4,0.2 0.8,0.4 1.1,0.6 0.1,-0.4 0.2,-0.8 0.3,-1.1 0,-0.2 0.1,-0.3 0.1,-0.5 0.4,-1.3 0.8,-2.5 1.2,-3.8 1.1,-3.6 4.2,-6.2 8,-6.6 h 0.5 c 1.6,-0.2 3.3,0 4.8,0.7 l 14.9,6.3 c 2.1,0.9 3.7,2.4 4.6,4.2 0.1,0.1 0.1,0.2 0.2,0.4 0.1,0.2 0.2,0.4 0.3,0.6 0.1,-0.1 0.3,-0.3 0.5,-0.5 0.1,-0.1 0.2,-0.2 0.3,-0.3 5,-5 11.5,-8.2 19.3,-9.4 5.3,-0.8 10.8,-1.1 16.3,-0.9 8.5,0.3 14.1,5.9 14.9,14.8 0.1,0.6 0.1,1.2 0.1,1.7 0,1 0,2 0,2.9 0,0.5 0,0.9 -0.1,1.4 -0.1,0.9 -0.2,1.8 -0.3,2.7 0,0 0,0 0,0 0,0.1 0,0.2 0,0.3 0.8,0.3 1.6,0.8 2.4,1.6 2.6,2.3 5.8,5.2 6.4,10 0,0.2 0,0.5 0.1,0.7 0,0.2 0,0.3 0,0.5 0,3.5 -2.5,6.8 -4.3,9.2 z"
       id="path6"
       inkscape:connector-curvature="0"
       style="fill:#ffffff" /><path
       class="st0"
       d="m 276.5,350.7 c 7.5,-0.9 13.9,-2.5 19.4,-4.6 -0.7,0 -1.4,-0.1 -2.1,-0.2 -4.3,-0.5 -8,-2.1 -10.8,-4.6 -12.7,5.1 -27.4,8.7 -32.8,9.9 1.5,0.1 2.9,0.1 4.4,0.2 8,0.3 15.4,0.1 21.9,-0.7 z"
       id="path8"
       inkscape:connector-curvature="0"
       style="fill:#ffffff" /><path
       class="st0"
       d="m 453,321.7 v 0 c 0,0 0,0 0,0 0,0 0,0 0,0 z"
       id="path10"
       inkscape:connector-curvature="0"
       style="fill:#ffffff" /><path
       class="st0"
       d="m 156.1,343.8 c 0.3,0 0.7,0.1 1.1,0 1.9,-0.2 3.6,-2 5,-5.3 0,0 0,-0.1 0,-0.1 0.1,-0.4 0.3,-0.8 0.5,-1.2 1.4,-4.2 2.7,-8.5 4,-12.6 0.1,-0.3 0.2,-0.6 0.3,-0.9 0,-0.1 0,-0.2 0.1,-0.3 v 0 c 0.4,-1.3 0.8,-2.7 1.2,-4 0.2,-0.7 0.4,-1.4 0.7,-2.1 0.6,-1.9 1.2,-3.9 1.7,-5.9 0.3,-1.4 0.2,-2.4 -0.5,-3.2 -0.5,-0.5 -1.4,-1.1 -3.2,-0.8 v 0 c 0,0 -0.1,0 -0.1,0 -0.1,0 -0.2,0 -0.3,0.1 -2.7,0.7 -3.5,3.1 -3.9,4.6 -0.8,2.6 -1.6,5.1 -2.4,7.6 v 0 c -0.1,0.3 -0.2,0.6 -0.3,0.9 v 0 c -1.8,5.7 -3.5,11.2 -5.2,16.7 -0.1,0.2 -0.1,0.4 -0.2,0.6 -0.3,0.9 -0.8,2.1 -0.4,3.5 0,0.9 0.8,2.2 1.9,2.4 z"
       id="path12"
       inkscape:connector-curvature="0"
       style="fill:#ffffff" /><path
       class="st0"
       d="m 275,262.8 c 0,-1.2 -0.5,-2.3 -1.2,-3.1 -0.1,-0.1 -0.2,-0.2 -0.3,-0.3 -0.1,-0.1 -0.2,-0.2 -0.3,-0.3 -0.5,-0.3 -1,-0.6 -1.6,-0.8 -0.2,0 -0.3,-0.1 -0.5,-0.1 -0.2,0 -0.3,-0.1 -0.5,-0.1 -0.3,0 -0.5,-0.1 -0.7,-0.1 -0.7,0 -1.3,0 -2,0 v 0 c -3.9,0.5 -6.9,2.9 -8.2,6.8 -2.1,5.9 -3.9,11.7 -5.9,17.9 -0.8,2.6 -1.7,5.2 -2.5,7.8 -0.1,0.4 0,0.8 0.3,1.1 0.2,0.2 0.6,0.3 0.9,0.3 0.1,0 0.2,0 0.3,-0.1 l 1.9,-0.7 c 9.7,-3.7 16.3,-10.9 19.8,-21.3 0.5,-2.1 0.6,-4.7 0.5,-7 z"
       id="path14"
       inkscape:connector-curvature="0"
       style="fill:#ffffff" /><path
       class="st0"
       d="m 314.9,297.6 c -1.1,-0.9 -1.6,-1.4 -2,-2.2 -0.4,-0.9 -0.6,-2.5 -0.5,-3.6 0.1,-0.5 -0.3,-1 -0.8,-1.2 -0.5,-0.2 -1.1,0.1 -1.3,0.6 -0.3,0.5 -0.5,1.1 -0.8,1.6 -0.2,0.4 -0.4,0.7 -0.6,1.1 -0.2,0.4 -0.3,0.7 -0.5,1.1 0,0 0,0.1 0,0.1 -0.2,0.4 -0.3,0.7 -0.4,1.1 0,0 0,0.1 0,0.1 -0.3,0.9 -0.6,1.8 -0.8,2.7 -0.6,1.9 -1.2,3.8 -1.8,5.7 -1.7,5.7 -3.5,11.3 -5.2,17.1 -0.3,1.1 -0.5,2.2 -0.4,3.2 0.1,0.8 0.5,1.5 1.2,2.1 0.8,0.6 1.7,0.9 2.7,0.8 1.3,-0.2 3.2,-1.1 4.5,-4.9 0.6,-1.7 1.1,-3.4 1.7,-5.1 0.4,-1.2 0.8,-2.4 1.1,-3.6 0.4,-1.4 0.9,-2.8 1.3,-4.2 0.5,-1.5 0.9,-2.9 1.4,-4.4 0.1,-0.2 0.1,-0.4 0.2,-0.6 0.3,-1 0.6,-2 0.9,-3 v 0 c 0.3,-1 0.6,-2 0.9,-2.9 0.1,-0.4 0,-0.9 -0.3,-1.2 z"
       id="path16"
       inkscape:connector-curvature="0"
       style="fill:#ffffff" /><path
       class="st0"
       d="m 323.6,284.6 c -1.1,0 -2.1,0.3 -2.7,1.1 -0.6,0.8 -0.8,1.9 -0.7,3.1 0.3,2.4 1.8,3.8 3.7,3.6 0.2,0 0.4,-0.1 0.6,-0.1 1.5,-0.5 2.9,-2.4 2.5,-4.7 -0.2,-1.4 -0.9,-2.9 -3.4,-3 z"
       id="path18"
       inkscape:connector-curvature="0"
       style="fill:#ffffff" /><path
       class="st0"
       d="m 250.7,295.3 c -0.5,-0.1 -1.1,0.2 -1.2,0.8 l -11.2,35.7 c -0.1,0.3 0,0.7 0.2,1 0.2,0.3 0.6,0.4 1,0.4 v 0 c 0.4,0 0.7,-0.1 1.1,-0.2 0.1,0 0.1,0 0.2,0 0.2,0 0.5,-0.1 0.7,-0.1 0.3,-0.1 0.7,-0.1 1,-0.2 0.4,-0.1 0.7,-0.2 1,-0.3 0.2,-0.1 0.4,-0.1 0.5,-0.2 0.3,-0.1 0.5,-0.2 0.8,-0.3 0.2,-0.1 0.3,-0.1 0.5,-0.2 0.6,-0.2 1.1,-0.5 1.6,-0.7 0.3,-0.1 0.6,-0.3 0.9,-0.4 0.3,-0.2 0.6,-0.3 0.9,-0.5 0.5,-0.3 0.9,-0.6 1.3,-0.9 0.3,-0.2 0.5,-0.4 0.7,-0.6 0.7,-0.5 1.3,-1 1.9,-1.6 0.6,-0.6 1.1,-1.1 1.6,-1.7 0.3,-0.3 0.5,-0.6 0.7,-0.9 0.6,-0.8 1.2,-1.6 1.7,-2.4 0.1,-0.2 0.3,-0.5 0.4,-0.7 0.3,-0.6 0.7,-1.2 1,-1.8 0.1,-0.3 0.3,-0.5 0.4,-0.8 0.1,-0.3 0.3,-0.5 0.4,-0.8 0.1,-0.3 0.3,-0.6 0.4,-0.9 0.3,-0.6 0.5,-1.2 0.7,-1.7 0.4,-1.1 0.7,-2.2 1,-3.1 0.1,-0.5 0.2,-0.9 0.3,-1.3 0,-0.1 0,-0.2 0.1,-0.3 v 0 c 0.1,-0.3 0.1,-0.5 0.2,-0.8 0,-0.2 0.1,-0.5 0.1,-0.7 0,-0.2 0.1,-0.5 0.1,-0.7 0,0 0,-0.1 0,-0.1 0.3,-2.8 -0.3,-5.4 -1.8,-7.5 -1.9,-2.9 -5,-4.7 -9.2,-5.5 z"
       id="path20"
       inkscape:connector-curvature="0"
       style="fill:#ffffff" /><path
       class="st0"
       d="m 473.2,288.1 c 0,0 0.1,0 0.1,0.1 v 0 c 0,0 0,0 0,0 0.1,0 0.2,0.1 0.3,0.1 0.1,0 0.2,0 0.3,0 0.1,0 0.3,0 0.4,0 6.6,-0.8 11,-8.3 11,-14.5 0,-1.5 -0.4,-2.5 -1.1,-3.1 -0.4,-0.3 -1.1,-0.7 -2.1,-0.6 -0.5,0 -1,0.2 -1.5,0.4 -1.1,0.4 -2.4,1.5 -2.9,2.8 -1.3,3.3 -2.4,6.5 -3.5,9.9 -0.4,1.2 -0.8,2.4 -1.3,3.7 -0.1,0.3 -0.1,0.7 0.2,1 -0.1,0.1 0,0.2 0.1,0.2 z"
       id="path22"
       inkscape:connector-curvature="0"
       style="fill:#ffffff" /><path
       class="st0"
       d="m 478,321.2 -47.6,5.6 -12.3,1.4 -0.8,0.1 -5.9,0.7 -0.8,0.1 -6,0.7 -0.8,0.1 -6,0.7 -0.8,0.1 -6.1,0.7 -0.7,0.1 -6.2,0.7 -0.7,0.1 -6.3,0.7 -0.5,0.1 -6.6,0.8 h -0.3 l -6.2,0.7 c -0.3,0 -0.6,0.1 -1,0.1 -0.3,0 -0.5,0.1 -0.8,0.2 -0.3,0.1 -0.5,0.1 -0.8,0.2 -0.2,0 -0.4,0.1 -0.6,0.2 -0.3,0.1 -0.5,0.1 -0.8,0.3 -0.3,0.1 -0.5,0.2 -0.8,0.3 -0.3,0.1 -0.5,0.2 -0.8,0.3 -0.3,0.1 -0.5,0.2 -0.8,0.3 -0.3,0.1 -0.6,0.3 -0.8,0.4 -0.2,0.1 -0.5,0.3 -0.7,0.4 -0.3,0.1 -0.5,0.3 -0.8,0.4 -0.3,0.1 -0.5,0.3 -0.8,0.5 -0.6,0.4 -1.3,0.8 -1.9,1.3 -0.2,0.1 -0.4,0.3 -0.6,0.5 -0.3,0.2 -0.5,0.4 -0.8,0.6 -0.3,0.2 -0.5,0.4 -0.8,0.6 -0.1,0.1 -0.2,0.2 -0.3,0.3 -0.2,0.2 -0.5,0.4 -0.7,0.6 -0.2,0.2 -0.5,0.4 -0.7,0.6 -0.2,0.2 -0.4,0.4 -0.6,0.6 -0.2,0.2 -0.5,0.5 -0.7,0.7 -0.2,0.2 -0.4,0.5 -0.6,0.7 -0.2,0.2 -0.4,0.5 -0.6,0.7 -0.2,0.3 -0.5,0.6 -0.7,0.9 -0.3,0.3 -0.5,0.7 -0.8,1.1 -0.2,0.3 -0.3,0.5 -0.5,0.8 -0.7,1.1 -1.4,2.3 -1.9,3.5 -0.3,0.6 -0.5,1.2 -0.7,1.8 0,0 0,0 0,0 -0.1,0.3 -0.2,0.6 -0.3,0.9 -0.1,0.2 -0.1,0.4 -0.2,0.6 -0.1,0.3 -0.1,0.6 -0.2,0.9 0,0.1 0,0.1 0,0.2 0,0.3 -0.1,0.5 -0.1,0.8 0,0.1 0,0.1 0,0.2 0,0.1 0,0.3 0,0.5 0,0.3 0,0.5 0,0.8 v 0.2 c 0,0.3 0,0.6 0,0.9 0,0.3 0.1,0.6 0.1,0.9 0,0.3 0.1,0.5 0.2,0.8 0.1,0.2 0.1,0.5 0.2,0.7 0.1,0.3 0.2,0.7 0.4,1 0.2,0.4 0.4,0.8 0.7,1.2 0.2,0.2 0.3,0.5 0.6,0.7 0.1,0.1 0.2,0.2 0.3,0.3 0.1,0.1 0.3,0.3 0.4,0.4 0.1,0.1 0.2,0.2 0.3,0.2 0.1,0.1 0.2,0.2 0.3,0.2 0,0 0,0 0,0 0.1,0.1 0.3,0.2 0.4,0.3 0.2,0.1 0.4,0.2 0.6,0.3 0.2,0.1 0.4,0.2 0.6,0.2 0,0 0,0 0,0 v 0 c 0.3,0.1 0.5,0.2 0.8,0.3 0.1,0 0.1,0 0.2,0 0,0 0.1,0 0.1,0 0,0 0.1,0 0.1,0 0,0 0,0 0.1,0 0,0 0,0 0,0 0.1,0 0.3,0 0.4,0.1 0,0 0,0 0,0 0,0 0,0 0,0 0.3,0 0.6,0.1 0.9,0.1 0.6,0 1.2,0 1.8,0 0.3,0 0.5,0 0.8,-0.1 l 1.5,-0.2 v 0 l 1.7,-0.2 7.6,-0.9 1.6,-0.2 7,-0.8 1.5,-0.2 6.8,-0.8 1.4,-0.2 6.6,-0.8 1.4,-0.2 6.5,-0.8 1.1,-0.1 6.5,-0.8 1.1,-0.1 6.3,-0.7 1.1,-0.1 13.3,-1.6 41.7,-4.9 c 8.2,-1 17.5,-8.5 21.3,-17.1 2.1,-4.8 2.1,-9.2 0,-12.1 -1.5,-2.4 -4.6,-3.5 -8.5,-3.1 z m -12.5,28.3 -40.3,4.7 -13.1,1.5 -1,0.1 -6.3,0.7 -1.1,0.1 -6.4,0.8 -1.1,0.1 -6.4,0.8 -1.3,0.1 -6.4,0.7 -1.3,0.2 -6.6,0.8 -1.4,0.2 -6.8,0.8 -1.5,0.2 -7.1,0.8 v 0 l -1.7,0.2 -5,0.6 c -0.7,0.1 -1.5,0.1 -2.2,0 -0.1,0 -0.2,0 -0.3,-0.1 -0.1,0 -0.2,0 -0.3,-0.1 0,0 0,0 -0.1,0 -0.2,-0.1 -0.4,-0.1 -0.6,-0.2 -0.1,0 -0.2,-0.1 -0.3,-0.2 -0.3,-0.2 -0.6,-0.4 -0.9,-0.8 -0.5,-0.7 -0.8,-1.6 -0.8,-2.7 0,0 0,0 0,0 v -0.1 c 0,-0.2 0,-0.4 0,-0.6 0,-0.2 0,-0.4 0.1,-0.6 v 0 c 0,-0.3 0.1,-0.6 0.2,-0.9 0,-0.2 0.1,-0.4 0.1,-0.5 0.1,-0.2 0.1,-0.4 0.2,-0.6 v 0 c 0.2,-0.5 0.4,-1 0.6,-1.5 0.2,-0.4 0.3,-0.7 0.5,-1.1 0,0 0,-0.1 0.1,-0.1 0.2,-0.3 0.4,-0.7 0.6,-1 0,0 0,0 0,-0.1 0.1,-0.2 0.2,-0.4 0.3,-0.6 0.2,-0.3 0.5,-0.7 0.7,-1 0.3,-0.4 0.6,-0.8 0.9,-1.1 0,0 0.1,-0.1 0.1,-0.1 0.3,-0.4 0.6,-0.7 0.9,-1.1 0.1,-0.1 0.2,-0.3 0.3,-0.4 0.3,-0.3 0.6,-0.6 0.8,-0.9 0.8,-0.8 1.6,-1.5 2.4,-2.2 0.4,-0.3 0.7,-0.6 1.1,-0.9 0,0 0,0 0,0 0.4,-0.3 0.8,-0.6 1.2,-0.8 0,0 0,0 0,0 0.3,-0.2 0.5,-0.3 0.8,-0.5 0.1,-0.1 0.2,-0.1 0.3,-0.2 0.1,0 0.2,-0.1 0.3,-0.2 0.9,-0.5 1.8,-0.9 2.6,-1.2 v 0 c 0.1,0 0.3,-0.1 0.4,-0.1 0,0 0.1,0 0.1,0 0.2,-0.1 0.5,-0.2 0.7,-0.2 0.3,-0.1 0.6,-0.2 0.8,-0.2 0.6,-0.1 1.1,-0.2 1.6,-0.3 l 3.6,-0.4 v 0 l 0.7,-0.1 6.5,-0.8 0.8,-0.1 6.3,-0.7 0.8,-0.1 6.2,-0.7 0.8,-0.1 v 0 l 1.8,-0.2 1.3,-0.2 2.9,-0.3 v 0 l 0.9,-0.1 6.1,-0.7 v 0 l 0.8,-0.1 6,-0.7 0.8,-0.1 6,-0.7 0.8,-0.1 12.4,-1.4 49.2,-5.7 c 1.5,-0.2 3.6,-0.1 4.7,1.3 1.1,1.6 1,4.4 -0.5,7.6 -2.7,6.9 -10.7,13.4 -17.3,14.2 z"
       id="path24"
       inkscape:connector-curvature="0"
       style="fill:#ffffff" /><path
       class="st0"
       d="m 379.6,342.5 -1.7,-0.1 c -0.2,0 -0.4,-0.1 -0.5,0.2 0,0.1 0,0.1 -0.1,0.2 l -1.1,3.2 c -0.2,0.5 -0.3,0.9 -0.6,2.4 v 0 c -0.4,-1.1 -0.9,-1.7 -1.1,-2 l -0.9,-1.5 -0.6,-0.9 -0.5,-0.7 c -0.1,-0.1 -0.1,-0.3 -0.5,-0.2 l -1.9,0.6 c -0.2,0.1 -0.4,0.1 -0.4,0.3 0,0.1 0.1,0.3 0.2,0.4 l 1.9,2.8 0.6,0.9 2,2.9 0.6,4.8 v 0 0.2 c 0,0.4 0.2,0.4 0.3,0.4 l 0.7,-0.1 1.4,-0.2 c 0.1,0 0.3,0 0.2,-0.4 l -0.3,-2.3 -0.3,-2 -0.1,-0.7 2.8,-7.7 c 0,-0.1 0.1,-0.1 0,-0.2 0.3,-0.2 0.2,-0.3 -0.1,-0.3 z"
       id="path26"
       inkscape:connector-curvature="0"
       style="fill:#ffffff" /><path
       class="st0"
       d="m 391.9,350 c 0,-0.1 0,-0.2 0,-0.3 l -1.1,-8.4 c -0.1,-0.5 -0.3,-0.4 -0.5,-0.4 l -1.6,0.2 h -0.2 c -0.2,0 -0.4,0 -0.4,0.4 l 0.1,1.1 0.9,7.3 c 0.1,1 0.4,2.7 -1.7,3 -1.4,0.2 -2,-0.5 -2.2,-1.4 -0.1,-0.4 -0.1,-0.8 -0.2,-1.1 l -0.1,-0.9 v 0 l -0.9,-7.4 c -0.1,-0.5 -0.3,-0.4 -0.5,-0.4 l -1.8,0.2 c -0.1,0 -0.2,0 -0.3,0.1 -0.1,0 -0.1,0.1 -0.1,0.3 v 0.1 l 1.1,8.4 c 0.1,0.8 0.3,1.8 0.9,2.7 0.2,0.3 0.5,0.6 0.8,0.9 0.8,0.5 1.9,0.8 3.6,0.6 1.1,-0.1 1.8,-0.4 2.5,-0.8 v 0 c 1.9,-0.9 1.9,-2.9 1.7,-4.2 z"
       id="path28"
       inkscape:connector-curvature="0"
       style="fill:#ffffff" /><path
       class="st0"
       d="m 406.3,351.9 -0.3,-1.8 -1.7,-10.2 c -0.1,-0.6 -0.2,-0.6 -0.5,-0.6 l -0.9,0.1 -0.9,0.1 h -0.2 c -0.2,0 -0.3,0.2 -0.3,0.4 l -1,5.1 c -0.1,0.5 -0.2,0.9 -0.3,1.4 0,0 0,0 0,0 0,0 0,0 0,0 -0.1,0.2 -0.1,0.4 -0.2,0.6 -0.2,-0.5 -0.5,-1.4 -0.8,-1.9 l -2.2,-4.7 c -0.1,-0.3 -0.2,-0.3 -0.4,-0.3 l -0.8,0.1 -0.9,0.1 h -0.4 c -0.2,0 -0.3,0.1 -0.3,0.4 l 0.1,1.3 0.2,2.7 0.7,8.5 c 0,0.3 0.2,0.4 0.4,0.4 l 1.6,-0.2 c 0.3,0 0.3,-0.2 0.3,-0.5 l -0.5,-5.7 c 0,-0.6 -0.1,-1.3 -0.5,-4 h 0.1 c 0.4,1.5 0.9,2.6 1.1,3 l 1.4,3.2 v 0 l 0.2,0.4 c 0.1,0.2 0.1,0.3 0.4,0.3 h 0.1 l 1.2,-0.2 c 0.3,0 0.3,-0.2 0.3,-0.4 l 0.7,-3.9 c 0.2,-1 0.2,-1.9 0.3,-3.1 v 0 c 0.1,0.5 0.1,1 0.2,1.6 0,0.2 0,0.3 0.1,0.4 0.1,0.6 0.1,0.7 0.2,1.1 l 1,6.6 c 0,0.3 0.1,0.4 0.3,0.4 l 0.9,-0.1 1,-0.1 v 0 c 0.1,0 0.3,-0.1 0.2,-0.4 z"
       id="path30"
       inkscape:connector-curvature="0"
       style="fill:#ffffff" /><path
       class="st0"
       d="m 413.4,345.9 c 0,-0.2 0,-0.4 -0.5,-0.3 l -4.8,0.6 c -0.1,0 -0.1,0 -0.2,0 -0.3,0.1 -0.2,0.3 -0.2,0.4 v 0.1 0 l 0.2,1.2 c 0,0.2 0,0.4 0.5,0.4 l 4.7,-0.6 c 0.5,-0.1 0.4,-0.3 0.4,-0.5 z"
       id="path32"
       inkscape:connector-curvature="0"
       style="fill:#ffffff" /><path
       class="st0"
       d="m 421.9,337.1 -5.1,0.6 -0.9,0.1 -0.5,0.1 c -0.2,0 -0.4,0.1 -0.3,0.4 l 0.3,2.2 0.3,2.5 v 0 l 1,7.8 c 0,0.4 0.2,0.4 0.4,0.3 l 1.8,-0.2 c 0.4,0 0.4,-0.2 0.3,-0.4 l -0.7,-5.5 3.2,-0.4 c 0.2,0 0.4,-0.1 0.3,-0.5 l -0.2,-1.3 c 0,-0.2 -0.1,-0.4 -0.4,-0.3 l -3.2,0.4 -0.4,-3.2 3.8,-0.5 c 0.2,0 0.3,-0.2 0.3,-0.3 l 0.2,-1.5 c 0,-0.1 0,-0.2 0,-0.3 0,0 -0.1,0 -0.2,0 z"
       id="path34"
       inkscape:connector-curvature="0"
       style="fill:#ffffff" /><path
       class="st0"
       d="m 434.2,336.2 c -0.1,-0.6 -0.2,-0.6 -0.5,-0.6 l -2,0.3 c -0.3,0 -0.3,0.2 -0.3,0.3 l -1,5.1 c -0.2,0.9 -0.3,1.5 -0.3,2.4 v 0 c -0.1,-0.4 -0.6,-1.6 -0.9,-2.3 l -0.6,-1.3 -1.6,-3.4 c -0.1,-0.3 -0.2,-0.3 -0.4,-0.3 l -2.1,0.3 c -0.2,0 -0.3,0.1 -0.3,0.5 l 1,12.5 c 0,0.3 0.2,0.4 0.4,0.4 l 0.6,-0.1 1,-0.1 c 0.3,0 0.3,-0.2 0.3,-0.5 l -0.3,-3.2 -0.2,-2.6 c -0.1,-0.6 -0.2,-1.3 -0.5,-4 h 0.1 c 0.5,1.5 0.9,2.6 1.1,3 l 0.3,0.6 v 0 l 1.3,3.1 c 0.1,0.2 0.1,0.3 0.4,0.3 l 1.4,-0.2 c 0.3,0 0.3,-0.2 0.3,-0.4 l 0.7,-3.9 c 0.2,-1 0.2,-1.9 0.3,-3.1 h 0.1 c 0.1,0.5 0.1,1 0.2,1.5 0,0.2 0,0.3 0.1,0.5 0.1,0.5 0.1,0.7 0.1,1.1 l 1,6.6 c 0,0.3 0.1,0.4 0.3,0.4 l 1.9,-0.3 c 0.2,0 0.3,-0.1 0.2,-0.4 z"
       id="path36"
       inkscape:connector-curvature="0"
       style="fill:#ffffff" /><path
       class="st0"
       d="m 440.1,344.9 c -1,0.1 -1.7,1.1 -1.6,2.1 0.1,1 1.1,1.7 2.1,1.6 1,-0.1 1.7,-1.1 1.6,-2.1 -0.1,-1 -1.1,-1.7 -2.1,-1.6 z"
       id="path38"
       inkscape:connector-curvature="0"
       style="fill:#ffffff" /><path
       class="st0"
       d="m 450.3,341 c 0.7,-0.5 1.1,-0.9 1.4,-1.5 0.4,-0.8 0.4,-1.7 0.3,-2.4 -0.1,-0.7 -0.3,-1.9 -1.4,-2.6 -1.1,-0.7 -2.4,-0.7 -3.6,-0.5 l -3.2,0.4 c -0.2,0 -0.4,0.1 -0.3,0.4 l 1.6,12.5 c 0,0.2 0.1,0.4 0.4,0.3 l 1.9,-0.2 c 0.3,0 0.4,-0.3 0.3,-0.4 l -0.6,-5.1 0.9,-0.1 3.3,4.9 c 0.4,0.7 0.5,0.6 0.8,0.5 l 1.7,-0.7 c 0.1,0 0.2,-0.1 0.2,-0.2 0,-0.1 -0.1,-0.2 -0.2,-0.3 z"
       id="path40"
       inkscape:connector-curvature="0"
       style="fill:#ffffff" /><path
       class="st0"
       d="m 463.8,332.2 c -0.1,-0.5 -0.3,-0.4 -0.5,-0.4 l -1.8,0.2 c -0.1,0 -0.4,0 -0.4,0.5 l 1.1,8.4 c 0.1,1 0.4,2.7 -1.7,3 -2.1,0.3 -2.3,-1.5 -2.4,-2.5 L 457,333 c -0.1,-0.5 -0.3,-0.4 -0.5,-0.4 l -1.8,0.2 c -0.2,0 -0.4,0 -0.4,0.5 l 1.1,8.4 c 0.2,1.7 0.8,4.8 5.3,4.2 4.5,-0.6 4.3,-3.8 4.1,-5.4 z"
       id="path42"
       inkscape:connector-curvature="0"
       style="fill:#ffffff" /></g></svg>